<?xml version="1.0" encoding="UTF-8" standalone="no"?>
<!DOCTYPE svg PUBLIC "-//W3C//DTD SVG 1.1//EN" "http://www.w3.org/Graphics/SVG/1.1/DTD/svg11.dtd">
<svg width="100%" height="100%" viewBox="0 0 1404 1872" version="1.1" xmlns="http://www.w3.org/2000/svg" xmlns:xlink="http://www.w3.org/1999/xlink" xml:space="preserve" xmlns:serif="http://www.serif.com/" style="fill-rule:evenodd;clip-rule:evenodd;stroke-linecap:round;stroke-linejoin:round;stroke-miterlimit:1.5;">
    <g transform="matrix(1,0,0,1,-56.8769,-196.127)">
        <g transform="matrix(31.3889,0,0,31.3889,194.58,344.263)">
            <path d="M0.093,-0L0.327,-0C0.501,-0 0.613,-0.116 0.613,-0.349C0.613,-0.582 0.501,-0.698 0.327,-0.698L0.093,-0.698L0.093,-0ZM0.177,-0.074L0.177,-0.624L0.327,-0.624C0.442,-0.624 0.523,-0.544 0.523,-0.406L0.523,-0.292C0.523,-0.154 0.442,-0.074 0.327,-0.074L0.177,-0.074Z" style="fill-rule:nonzero;"/>
        </g>
        <g transform="matrix(31.3889,0,0,31.3889,215.642,344.263)">
            <path d="M0.505,-0L0.505,-0.07L0.446,-0.07L0.446,-0.354C0.446,-0.463 0.372,-0.528 0.248,-0.528C0.155,-0.528 0.093,-0.482 0.065,-0.427L0.113,-0.382C0.141,-0.429 0.182,-0.459 0.244,-0.459C0.326,-0.459 0.366,-0.419 0.366,-0.346L0.366,-0.295L0.264,-0.295C0.114,-0.295 0.044,-0.241 0.044,-0.144C0.044,-0.048 0.108,0.012 0.217,0.012C0.289,0.012 0.344,-0.021 0.366,-0.084L0.371,-0.084C0.377,-0.036 0.401,-0 0.46,-0L0.505,-0ZM0.23,-0.056C0.168,-0.056 0.128,-0.085 0.128,-0.136L0.128,-0.157C0.128,-0.207 0.169,-0.235 0.26,-0.235L0.366,-0.235L0.366,-0.15C0.366,-0.097 0.309,-0.056 0.23,-0.056Z" style="fill-rule:nonzero;"/>
        </g>
        <g transform="matrix(31.3889,0,0,31.3889,232.404,344.263)">
            <path d="M0.125,-0.637C0.159,-0.637 0.174,-0.655 0.174,-0.682L0.174,-0.695C0.174,-0.722 0.159,-0.74 0.125,-0.74C0.091,-0.74 0.076,-0.722 0.076,-0.695L0.076,-0.682C0.076,-0.655 0.091,-0.637 0.125,-0.637ZM0.085,-0L0.165,-0L0.165,-0.516L0.085,-0.516L0.085,-0Z" style="fill-rule:nonzero;"/>
        </g>
        <g transform="matrix(31.3889,0,0,31.3889,240.251,344.263)">
            <path d="M0.241,-0L0.241,-0.07L0.165,-0.07L0.165,-0.74L0.085,-0.74L0.085,-0.083C0.085,-0.035 0.115,-0 0.17,-0L0.241,-0Z" style="fill-rule:nonzero;"/>
        </g>
        <g transform="matrix(31.3889,0,0,31.3889,248.475,344.263)">
            <path d="M0.278,-0.165L0.25,-0.081L0.245,-0.081L0.221,-0.165L0.097,-0.516L0.017,-0.516L0.21,0.02L0.171,0.13L0.09,0.13L0.09,0.2L0.131,0.2C0.207,0.2 0.228,0.182 0.251,0.12L0.482,-0.516L0.403,-0.516L0.278,-0.165Z" style="fill-rule:nonzero;"/>
        </g>
        <g transform="matrix(31.3889,0,0,31.3889,271.546,344.263)">
            <path d="M0.093,-0L0.175,-0L0.175,-0.588L0.18,-0.588L0.239,-0.471L0.406,-0.167L0.573,-0.471L0.632,-0.588L0.637,-0.588L0.637,-0L0.719,-0L0.719,-0.698L0.611,-0.698L0.41,-0.322L0.405,-0.322L0.205,-0.698L0.093,-0.698L0.093,-0Z" style="fill-rule:nonzero;"/>
        </g>
        <g transform="matrix(31.3889,0,0,31.3889,297.034,344.263)">
            <path d="M0.279,0.012C0.376,0.012 0.45,-0.036 0.483,-0.106L0.426,-0.147C0.399,-0.09 0.349,-0.058 0.284,-0.058C0.188,-0.058 0.131,-0.125 0.131,-0.214L0.131,-0.238L0.502,-0.238L0.502,-0.276C0.502,-0.422 0.417,-0.528 0.279,-0.528C0.139,-0.528 0.047,-0.422 0.047,-0.258C0.047,-0.094 0.139,0.012 0.279,0.012ZM0.279,-0.461C0.361,-0.461 0.416,-0.4 0.416,-0.309L0.416,-0.298L0.131,-0.298L0.131,-0.305C0.131,-0.395 0.192,-0.461 0.279,-0.461Z" style="fill-rule:nonzero;"/>
        </g>
        <g transform="matrix(31.3889,0,0,31.3889,314.266,344.263)">
            <path d="M0.299,-0L0.299,-0.07L0.194,-0.07L0.194,-0.446L0.307,-0.446L0.307,-0.516L0.194,-0.516L0.194,-0.659L0.122,-0.659L0.122,-0.563C0.122,-0.528 0.111,-0.516 0.077,-0.516L0.029,-0.516L0.029,-0.446L0.114,-0.446L0.114,-0.085C0.114,-0.035 0.144,-0 0.199,-0L0.299,-0Z" style="fill-rule:nonzero;"/>
        </g>
        <g transform="matrix(31.3889,0,0,31.3889,325.284,344.263)">
            <path d="M0.165,-0L0.165,-0.35C0.165,-0.399 0.217,-0.436 0.303,-0.436L0.35,-0.436L0.35,-0.516L0.319,-0.516C0.235,-0.516 0.188,-0.47 0.17,-0.421L0.165,-0.421L0.165,-0.516L0.085,-0.516L0.085,-0L0.165,-0Z" style="fill-rule:nonzero;"/>
        </g>
        <g transform="matrix(31.3889,0,0,31.3889,336.803,344.263)">
            <path d="M0.125,-0.637C0.159,-0.637 0.174,-0.655 0.174,-0.682L0.174,-0.695C0.174,-0.722 0.159,-0.74 0.125,-0.74C0.091,-0.74 0.076,-0.722 0.076,-0.695L0.076,-0.682C0.076,-0.655 0.091,-0.637 0.125,-0.637ZM0.085,-0L0.165,-0L0.165,-0.516L0.085,-0.516L0.085,-0Z" style="fill-rule:nonzero;"/>
        </g>
        <g transform="matrix(31.3889,0,0,31.3889,344.651,344.263)">
            <path d="M0.277,0.012C0.375,0.012 0.442,-0.036 0.475,-0.11L0.417,-0.149C0.389,-0.09 0.342,-0.059 0.277,-0.059C0.182,-0.059 0.133,-0.124 0.133,-0.214L0.133,-0.302C0.133,-0.392 0.182,-0.457 0.277,-0.457C0.34,-0.457 0.384,-0.426 0.403,-0.373L0.47,-0.407C0.44,-0.478 0.379,-0.528 0.277,-0.528C0.132,-0.528 0.047,-0.423 0.047,-0.258C0.047,-0.093 0.132,0.012 0.277,0.012Z" style="fill-rule:nonzero;"/>
        </g>
        <g transform="matrix(31.3889,0,0,31.3889,360.439,344.263)">
            <path d="M0.24,0.012C0.358,0.012 0.431,-0.049 0.431,-0.149C0.431,-0.227 0.387,-0.277 0.273,-0.294L0.233,-0.3C0.169,-0.31 0.134,-0.33 0.134,-0.38C0.134,-0.429 0.169,-0.46 0.235,-0.46C0.301,-0.46 0.345,-0.429 0.368,-0.397L0.421,-0.445C0.379,-0.497 0.324,-0.528 0.241,-0.528C0.136,-0.528 0.057,-0.478 0.057,-0.376C0.057,-0.28 0.128,-0.241 0.223,-0.227L0.264,-0.221C0.332,-0.211 0.354,-0.18 0.354,-0.14C0.354,-0.087 0.314,-0.056 0.246,-0.056C0.181,-0.056 0.133,-0.085 0.093,-0.135L0.036,-0.089C0.082,-0.028 0.145,0.012 0.24,0.012Z" style="fill-rule:nonzero;"/>
        </g>
        <rect x="194.58" y="347.245" width="181.145" height="1.883"/>
    </g>
    <g transform="matrix(1,0,0,1,245.686,-228.393)">
        <g transform="matrix(31.3889,0,0,31.3889,712.272,376.725)">
            <path d="M0.093,-0L0.327,-0C0.501,-0 0.613,-0.116 0.613,-0.349C0.613,-0.582 0.501,-0.698 0.327,-0.698L0.093,-0.698L0.093,-0ZM0.177,-0.074L0.177,-0.624L0.327,-0.624C0.442,-0.624 0.523,-0.544 0.523,-0.406L0.523,-0.292C0.523,-0.154 0.442,-0.074 0.327,-0.074L0.177,-0.074Z" style="fill-rule:nonzero;"/>
        </g>
        <g transform="matrix(31.3889,0,0,31.3889,733.334,376.725)">
            <path d="M0.505,-0L0.505,-0.07L0.446,-0.07L0.446,-0.354C0.446,-0.463 0.372,-0.528 0.248,-0.528C0.155,-0.528 0.093,-0.482 0.065,-0.427L0.113,-0.382C0.141,-0.429 0.182,-0.459 0.244,-0.459C0.326,-0.459 0.366,-0.419 0.366,-0.346L0.366,-0.295L0.264,-0.295C0.114,-0.295 0.044,-0.241 0.044,-0.144C0.044,-0.048 0.108,0.012 0.217,0.012C0.289,0.012 0.344,-0.021 0.366,-0.084L0.371,-0.084C0.377,-0.036 0.401,-0 0.46,-0L0.505,-0ZM0.23,-0.056C0.168,-0.056 0.128,-0.085 0.128,-0.136L0.128,-0.157C0.128,-0.207 0.169,-0.235 0.26,-0.235L0.366,-0.235L0.366,-0.15C0.366,-0.097 0.309,-0.056 0.23,-0.056Z" style="fill-rule:nonzero;"/>
        </g>
        <g transform="matrix(31.3889,0,0,31.3889,750.096,376.725)">
            <path d="M0.125,-0.637C0.159,-0.637 0.174,-0.655 0.174,-0.682L0.174,-0.695C0.174,-0.722 0.159,-0.74 0.125,-0.74C0.091,-0.74 0.076,-0.722 0.076,-0.695L0.076,-0.682C0.076,-0.655 0.091,-0.637 0.125,-0.637ZM0.085,-0L0.165,-0L0.165,-0.516L0.085,-0.516L0.085,-0Z" style="fill-rule:nonzero;"/>
        </g>
        <g transform="matrix(31.3889,0,0,31.3889,757.943,376.725)">
            <path d="M0.241,-0L0.241,-0.07L0.165,-0.07L0.165,-0.74L0.085,-0.74L0.085,-0.083C0.085,-0.035 0.115,-0 0.17,-0L0.241,-0Z" style="fill-rule:nonzero;"/>
        </g>
        <g transform="matrix(31.3889,0,0,31.3889,766.167,376.725)">
            <path d="M0.278,-0.165L0.25,-0.081L0.245,-0.081L0.221,-0.165L0.097,-0.516L0.017,-0.516L0.21,0.02L0.171,0.13L0.09,0.13L0.09,0.2L0.131,0.2C0.207,0.2 0.228,0.182 0.251,0.12L0.482,-0.516L0.403,-0.516L0.278,-0.165Z" style="fill-rule:nonzero;"/>
        </g>
        <g transform="matrix(31.3889,0,0,31.3889,789.238,376.725)">
            <path d="M0.545,-0L0.623,-0L0.623,-0.359L0.387,-0.359L0.387,-0.285L0.541,-0.285L0.541,-0.216C0.541,-0.113 0.46,-0.063 0.363,-0.063C0.23,-0.063 0.148,-0.155 0.148,-0.293L0.148,-0.406C0.148,-0.544 0.232,-0.635 0.355,-0.635C0.443,-0.635 0.508,-0.589 0.54,-0.515L0.609,-0.557C0.564,-0.648 0.48,-0.71 0.355,-0.71C0.176,-0.71 0.058,-0.581 0.058,-0.349C0.058,-0.115 0.177,0.012 0.348,0.012C0.454,0.012 0.525,-0.037 0.542,-0.102L0.545,-0.102L0.545,-0Z" style="fill-rule:nonzero;"/>
        </g>
        <g transform="matrix(31.3889,0,0,31.3889,811.053,376.725)">
            <path d="M0.28,0.012C0.418,0.012 0.513,-0.094 0.513,-0.258C0.513,-0.422 0.418,-0.528 0.28,-0.528C0.142,-0.528 0.047,-0.422 0.047,-0.258C0.047,-0.094 0.142,0.012 0.28,0.012ZM0.28,-0.059C0.194,-0.059 0.133,-0.112 0.133,-0.221L0.133,-0.295C0.133,-0.404 0.194,-0.457 0.28,-0.457C0.366,-0.457 0.427,-0.404 0.427,-0.295L0.427,-0.221C0.427,-0.112 0.366,-0.059 0.28,-0.059Z" style="fill-rule:nonzero;"/>
        </g>
        <g transform="matrix(31.3889,0,0,31.3889,828.631,376.725)">
            <path d="M0.505,-0L0.505,-0.07L0.446,-0.07L0.446,-0.354C0.446,-0.463 0.372,-0.528 0.248,-0.528C0.155,-0.528 0.093,-0.482 0.065,-0.427L0.113,-0.382C0.141,-0.429 0.182,-0.459 0.244,-0.459C0.326,-0.459 0.366,-0.419 0.366,-0.346L0.366,-0.295L0.264,-0.295C0.114,-0.295 0.044,-0.241 0.044,-0.144C0.044,-0.048 0.108,0.012 0.217,0.012C0.289,0.012 0.344,-0.021 0.366,-0.084L0.371,-0.084C0.377,-0.036 0.401,-0 0.46,-0L0.505,-0ZM0.23,-0.056C0.168,-0.056 0.128,-0.085 0.128,-0.136L0.128,-0.157C0.128,-0.207 0.169,-0.235 0.26,-0.235L0.366,-0.235L0.366,-0.15C0.366,-0.097 0.309,-0.056 0.23,-0.056Z" style="fill-rule:nonzero;"/>
        </g>
        <g transform="matrix(31.3889,0,0,31.3889,845.393,376.725)">
            <path d="M0.241,-0L0.241,-0.07L0.165,-0.07L0.165,-0.74L0.085,-0.74L0.085,-0.083C0.085,-0.035 0.115,-0 0.17,-0L0.241,-0Z" style="fill-rule:nonzero;"/>
        </g>
        <rect x="712.272" y="379.707" width="141.658" height="1.883"/>
    </g>
    <g transform="matrix(1,0,0,1,-124.277,-232.993)">
        <g transform="matrix(31.3889,0,0,31.3889,263.26,626.177)">
            <path d="M0.55,-0.624L0.55,-0.698L0.022,-0.698L0.022,-0.624L0.244,-0.624L0.244,-0L0.328,-0L0.328,-0.624L0.55,-0.624Z" style="fill-rule:nonzero;"/>
        </g>
        <g transform="matrix(31.3889,0,0,31.3889,281.215,626.177)">
            <path d="M0.125,-0.637C0.159,-0.637 0.174,-0.655 0.174,-0.682L0.174,-0.695C0.174,-0.722 0.159,-0.74 0.125,-0.74C0.091,-0.74 0.076,-0.722 0.076,-0.695L0.076,-0.682C0.076,-0.655 0.091,-0.637 0.125,-0.637ZM0.085,-0L0.165,-0L0.165,-0.516L0.085,-0.516L0.085,-0Z" style="fill-rule:nonzero;"/>
        </g>
        <g transform="matrix(31.3889,0,0,31.3889,289.062,626.177)">
            <path d="M0.165,-0L0.165,-0.358C0.165,-0.424 0.225,-0.456 0.288,-0.456C0.364,-0.456 0.399,-0.409 0.399,-0.317L0.399,-0L0.479,-0L0.479,-0.358C0.479,-0.424 0.537,-0.456 0.6,-0.456C0.678,-0.456 0.713,-0.408 0.713,-0.317L0.713,-0L0.793,-0L0.793,-0.331C0.793,-0.456 0.73,-0.528 0.625,-0.528C0.537,-0.528 0.487,-0.479 0.468,-0.423L0.466,-0.423C0.438,-0.497 0.376,-0.528 0.308,-0.528C0.228,-0.528 0.192,-0.485 0.169,-0.432L0.165,-0.432L0.165,-0.516L0.085,-0.516L0.085,-0L0.165,-0Z" style="fill-rule:nonzero;"/>
        </g>
        <g transform="matrix(31.3889,0,0,31.3889,316.464,626.177)">
            <path d="M0.279,0.012C0.376,0.012 0.45,-0.036 0.483,-0.106L0.426,-0.147C0.399,-0.09 0.349,-0.058 0.284,-0.058C0.188,-0.058 0.131,-0.125 0.131,-0.214L0.131,-0.238L0.502,-0.238L0.502,-0.276C0.502,-0.422 0.417,-0.528 0.279,-0.528C0.139,-0.528 0.047,-0.422 0.047,-0.258C0.047,-0.094 0.139,0.012 0.279,0.012ZM0.279,-0.461C0.361,-0.461 0.416,-0.4 0.416,-0.309L0.416,-0.298L0.131,-0.298L0.131,-0.305C0.131,-0.395 0.192,-0.461 0.279,-0.461Z" style="fill-rule:nonzero;"/>
        </g>
        <g transform="matrix(31.3889,0,0,31.3889,341.105,626.177)">
            <path d="M0.093,-0L0.41,-0C0.513,-0 0.59,-0.087 0.59,-0.202C0.59,-0.318 0.503,-0.361 0.453,-0.364L0.453,-0.37C0.499,-0.377 0.566,-0.414 0.566,-0.518C0.566,-0.627 0.495,-0.698 0.38,-0.698L0.093,-0.698L0.093,-0ZM0.177,-0.324L0.384,-0.324C0.456,-0.324 0.5,-0.286 0.5,-0.216L0.5,-0.182C0.5,-0.112 0.456,-0.074 0.384,-0.074L0.177,-0.074L0.177,-0.324ZM0.177,-0.624L0.37,-0.624C0.436,-0.624 0.476,-0.589 0.476,-0.527L0.476,-0.493C0.476,-0.431 0.436,-0.396 0.37,-0.396L0.177,-0.396L0.177,-0.624Z" style="fill-rule:nonzero;"/>
        </g>
        <g transform="matrix(31.3889,0,0,31.3889,361.602,626.177)">
            <path d="M0.241,-0L0.241,-0.07L0.165,-0.07L0.165,-0.74L0.085,-0.74L0.085,-0.083C0.085,-0.035 0.115,-0 0.17,-0L0.241,-0Z" style="fill-rule:nonzero;"/>
        </g>
        <g transform="matrix(31.3889,0,0,31.3889,370.139,626.177)">
            <path d="M0.28,0.012C0.418,0.012 0.513,-0.094 0.513,-0.258C0.513,-0.422 0.418,-0.528 0.28,-0.528C0.142,-0.528 0.047,-0.422 0.047,-0.258C0.047,-0.094 0.142,0.012 0.28,0.012ZM0.28,-0.059C0.194,-0.059 0.133,-0.112 0.133,-0.221L0.133,-0.295C0.133,-0.404 0.194,-0.457 0.28,-0.457C0.366,-0.457 0.427,-0.404 0.427,-0.295L0.427,-0.221C0.427,-0.112 0.366,-0.059 0.28,-0.059Z" style="fill-rule:nonzero;"/>
        </g>
        <g transform="matrix(31.3889,0,0,31.3889,387.717,626.177)">
            <path d="M0.277,0.012C0.375,0.012 0.442,-0.036 0.475,-0.11L0.417,-0.149C0.389,-0.09 0.342,-0.059 0.277,-0.059C0.182,-0.059 0.133,-0.124 0.133,-0.214L0.133,-0.302C0.133,-0.392 0.182,-0.457 0.277,-0.457C0.34,-0.457 0.384,-0.426 0.403,-0.373L0.47,-0.407C0.44,-0.478 0.379,-0.528 0.277,-0.528C0.132,-0.528 0.047,-0.423 0.047,-0.258C0.047,-0.093 0.132,0.012 0.277,0.012Z" style="fill-rule:nonzero;"/>
        </g>
        <g transform="matrix(31.3889,0,0,31.3889,403.506,626.177)">
            <path d="M0.085,-0L0.165,-0L0.165,-0.184L0.242,-0.263L0.413,-0L0.51,-0L0.3,-0.312L0.491,-0.516L0.394,-0.516L0.248,-0.359L0.169,-0.271L0.165,-0.271L0.165,-0.74L0.085,-0.74L0.085,-0Z" style="fill-rule:nonzero;"/>
        </g>
        <g transform="matrix(31.3889,0,0,31.3889,420.048,626.177)">
            <path d="M0.125,-0.637C0.159,-0.637 0.174,-0.655 0.174,-0.682L0.174,-0.695C0.174,-0.722 0.159,-0.74 0.125,-0.74C0.091,-0.74 0.076,-0.722 0.076,-0.695L0.076,-0.682C0.076,-0.655 0.091,-0.637 0.125,-0.637ZM0.085,-0L0.165,-0L0.165,-0.516L0.085,-0.516L0.085,-0Z" style="fill-rule:nonzero;"/>
        </g>
        <g transform="matrix(31.3889,0,0,31.3889,427.895,626.177)">
            <path d="M0.165,-0L0.165,-0.358C0.165,-0.424 0.227,-0.456 0.291,-0.456C0.368,-0.456 0.408,-0.409 0.408,-0.317L0.408,-0L0.488,-0L0.488,-0.331C0.488,-0.456 0.421,-0.528 0.315,-0.528C0.238,-0.528 0.194,-0.49 0.169,-0.432L0.165,-0.432L0.165,-0.516L0.085,-0.516L0.085,-0L0.165,-0Z" style="fill-rule:nonzero;"/>
        </g>
        <g transform="matrix(31.3889,0,0,31.3889,445.724,626.177)">
            <path d="M0.52,0.057C0.52,-0.028 0.465,-0.08 0.337,-0.08L0.227,-0.08C0.18,-0.08 0.148,-0.088 0.148,-0.119C0.148,-0.151 0.182,-0.168 0.216,-0.177C0.231,-0.174 0.249,-0.172 0.266,-0.172C0.384,-0.172 0.461,-0.245 0.461,-0.35C0.461,-0.405 0.439,-0.451 0.402,-0.483L0.402,-0.516L0.5,-0.516L0.5,-0.586L0.423,-0.586C0.38,-0.586 0.363,-0.557 0.363,-0.517L0.363,-0.508C0.335,-0.521 0.302,-0.528 0.265,-0.528C0.148,-0.528 0.071,-0.455 0.071,-0.35C0.071,-0.278 0.107,-0.221 0.168,-0.192L0.168,-0.188C0.116,-0.175 0.079,-0.15 0.079,-0.098C0.079,-0.063 0.096,-0.04 0.125,-0.026L0.125,-0.015C0.074,-0.001 0.043,0.029 0.043,0.085C0.043,0.166 0.109,0.212 0.27,0.212C0.436,0.212 0.52,0.163 0.52,0.057ZM0.445,0.063C0.445,0.119 0.393,0.147 0.304,0.147L0.23,0.147C0.149,0.147 0.118,0.11 0.118,0.065C0.118,0.033 0.133,0.01 0.166,-0.005L0.338,-0.005C0.418,-0.005 0.445,0.022 0.445,0.063ZM0.266,-0.236C0.198,-0.236 0.155,-0.268 0.155,-0.336L0.155,-0.364C0.155,-0.432 0.198,-0.464 0.266,-0.464C0.334,-0.464 0.377,-0.432 0.377,-0.364L0.377,-0.336C0.377,-0.268 0.334,-0.236 0.266,-0.236Z" style="fill-rule:nonzero;"/>
        </g>
        <rect x="263.26" y="629.159" width="199.037" height="1.883"/>
    </g>
    <g transform="matrix(1,0,0,1,131.759,-221.934)">
        <g transform="matrix(31.3889,0,0,31.3889,826.199,615.314)">
            <path d="M0.517,-0L0.614,-0L0.614,-0.698L0.532,-0.698L0.532,-0.117L0.529,-0.117L0.445,-0.272L0.19,-0.698L0.093,-0.698L0.093,-0L0.175,-0L0.175,-0.581L0.178,-0.581L0.262,-0.426L0.517,-0Z" style="fill-rule:nonzero;"/>
        </g>
        <g transform="matrix(31.3889,0,0,31.3889,848.391,615.314)">
            <path d="M0.28,0.012C0.418,0.012 0.513,-0.094 0.513,-0.258C0.513,-0.422 0.418,-0.528 0.28,-0.528C0.142,-0.528 0.047,-0.422 0.047,-0.258C0.047,-0.094 0.142,0.012 0.28,0.012ZM0.28,-0.059C0.194,-0.059 0.133,-0.112 0.133,-0.221L0.133,-0.295C0.133,-0.404 0.194,-0.457 0.28,-0.457C0.366,-0.457 0.427,-0.404 0.427,-0.295L0.427,-0.221C0.427,-0.112 0.366,-0.059 0.28,-0.059Z" style="fill-rule:nonzero;"/>
        </g>
        <g transform="matrix(31.3889,0,0,31.3889,865.969,615.314)">
            <path d="M0.299,-0L0.299,-0.07L0.194,-0.07L0.194,-0.446L0.307,-0.446L0.307,-0.516L0.194,-0.516L0.194,-0.659L0.122,-0.659L0.122,-0.563C0.122,-0.528 0.111,-0.516 0.077,-0.516L0.029,-0.516L0.029,-0.446L0.114,-0.446L0.114,-0.085C0.114,-0.035 0.144,-0 0.199,-0L0.299,-0Z" style="fill-rule:nonzero;"/>
        </g>
        <g transform="matrix(31.3889,0,0,31.3889,876.861,615.314)">
            <path d="M0.279,0.012C0.376,0.012 0.45,-0.036 0.483,-0.106L0.426,-0.147C0.399,-0.09 0.349,-0.058 0.284,-0.058C0.188,-0.058 0.131,-0.125 0.131,-0.214L0.131,-0.238L0.502,-0.238L0.502,-0.276C0.502,-0.422 0.417,-0.528 0.279,-0.528C0.139,-0.528 0.047,-0.422 0.047,-0.258C0.047,-0.094 0.139,0.012 0.279,0.012ZM0.279,-0.461C0.361,-0.461 0.416,-0.4 0.416,-0.309L0.416,-0.298L0.131,-0.298L0.131,-0.305C0.131,-0.395 0.192,-0.461 0.279,-0.461Z" style="fill-rule:nonzero;"/>
        </g>
        <g transform="matrix(31.3889,0,0,31.3889,894.094,615.314)">
            <path d="M0.24,0.012C0.358,0.012 0.431,-0.049 0.431,-0.149C0.431,-0.227 0.387,-0.277 0.273,-0.294L0.233,-0.3C0.169,-0.31 0.134,-0.33 0.134,-0.38C0.134,-0.429 0.169,-0.46 0.235,-0.46C0.301,-0.46 0.345,-0.429 0.368,-0.397L0.421,-0.445C0.379,-0.497 0.324,-0.528 0.241,-0.528C0.136,-0.528 0.057,-0.478 0.057,-0.376C0.057,-0.28 0.128,-0.241 0.223,-0.227L0.264,-0.221C0.332,-0.211 0.354,-0.18 0.354,-0.14C0.354,-0.087 0.314,-0.056 0.246,-0.056C0.181,-0.056 0.133,-0.085 0.093,-0.135L0.036,-0.089C0.082,-0.028 0.145,0.012 0.24,0.012Z" style="fill-rule:nonzero;"/>
        </g>
        <g transform="matrix(31.3889,0,0,31.3889,916.788,615.314)">
            <path d="M0.564,-0L0.668,-0L0.532,-0.145C0.554,-0.189 0.571,-0.241 0.58,-0.299L0.651,-0.299L0.651,-0.367L0.515,-0.367C0.512,-0.308 0.502,-0.249 0.482,-0.198L0.325,-0.367C0.413,-0.416 0.485,-0.468 0.485,-0.56C0.485,-0.649 0.416,-0.71 0.317,-0.71C0.208,-0.71 0.136,-0.636 0.136,-0.542C0.136,-0.48 0.167,-0.428 0.215,-0.378C0.143,-0.339 0.072,-0.285 0.072,-0.181C0.072,-0.074 0.148,0.012 0.286,0.012C0.399,0.012 0.461,-0.047 0.489,-0.082L0.564,-0ZM0.313,-0.643C0.364,-0.643 0.408,-0.612 0.408,-0.558L0.408,-0.546C0.408,-0.491 0.345,-0.446 0.282,-0.412C0.242,-0.457 0.215,-0.497 0.215,-0.537L0.215,-0.549C0.215,-0.602 0.256,-0.643 0.313,-0.643ZM0.293,-0.058C0.209,-0.058 0.155,-0.104 0.155,-0.177L0.155,-0.192C0.155,-0.27 0.203,-0.303 0.257,-0.332L0.444,-0.13C0.409,-0.086 0.36,-0.058 0.293,-0.058Z" style="fill-rule:nonzero;"/>
        </g>
        <g transform="matrix(31.3889,0,0,31.3889,945.979,615.314)">
            <path d="M0.55,-0.624L0.55,-0.698L0.022,-0.698L0.022,-0.624L0.244,-0.624L0.244,-0L0.328,-0L0.328,-0.624L0.55,-0.624Z" style="fill-rule:nonzero;"/>
        </g>
        <g transform="matrix(31.3889,0,0,31.3889,961.737,615.314)">
            <path d="M0.505,-0L0.505,-0.07L0.446,-0.07L0.446,-0.354C0.446,-0.463 0.372,-0.528 0.248,-0.528C0.155,-0.528 0.093,-0.482 0.065,-0.427L0.113,-0.382C0.141,-0.429 0.182,-0.459 0.244,-0.459C0.326,-0.459 0.366,-0.419 0.366,-0.346L0.366,-0.295L0.264,-0.295C0.114,-0.295 0.044,-0.241 0.044,-0.144C0.044,-0.048 0.108,0.012 0.217,0.012C0.289,0.012 0.344,-0.021 0.366,-0.084L0.371,-0.084C0.377,-0.036 0.401,-0 0.46,-0L0.505,-0ZM0.23,-0.056C0.168,-0.056 0.128,-0.085 0.128,-0.136L0.128,-0.157C0.128,-0.207 0.169,-0.235 0.26,-0.235L0.366,-0.235L0.366,-0.15C0.366,-0.097 0.309,-0.056 0.23,-0.056Z" style="fill-rule:nonzero;"/>
        </g>
        <g transform="matrix(31.3889,0,0,31.3889,978.498,615.314)">
            <path d="M0.24,0.012C0.358,0.012 0.431,-0.049 0.431,-0.149C0.431,-0.227 0.387,-0.277 0.273,-0.294L0.233,-0.3C0.169,-0.31 0.134,-0.33 0.134,-0.38C0.134,-0.429 0.169,-0.46 0.235,-0.46C0.301,-0.46 0.345,-0.429 0.368,-0.397L0.421,-0.445C0.379,-0.497 0.324,-0.528 0.241,-0.528C0.136,-0.528 0.057,-0.478 0.057,-0.376C0.057,-0.28 0.128,-0.241 0.223,-0.227L0.264,-0.221C0.332,-0.211 0.354,-0.18 0.354,-0.14C0.354,-0.087 0.314,-0.056 0.246,-0.056C0.181,-0.056 0.133,-0.085 0.093,-0.135L0.036,-0.089C0.082,-0.028 0.145,0.012 0.24,0.012Z" style="fill-rule:nonzero;"/>
        </g>
        <g transform="matrix(31.3889,0,0,31.3889,993.785,615.314)">
            <path d="M0.085,-0L0.165,-0L0.165,-0.184L0.242,-0.263L0.413,-0L0.51,-0L0.3,-0.312L0.491,-0.516L0.394,-0.516L0.248,-0.359L0.169,-0.271L0.165,-0.271L0.165,-0.74L0.085,-0.74L0.085,-0Z" style="fill-rule:nonzero;"/>
        </g>
        <g transform="matrix(31.3889,0,0,31.3889,1010.01,615.314)">
            <path d="M0.24,0.012C0.358,0.012 0.431,-0.049 0.431,-0.149C0.431,-0.227 0.387,-0.277 0.273,-0.294L0.233,-0.3C0.169,-0.31 0.134,-0.33 0.134,-0.38C0.134,-0.429 0.169,-0.46 0.235,-0.46C0.301,-0.46 0.345,-0.429 0.368,-0.397L0.421,-0.445C0.379,-0.497 0.324,-0.528 0.241,-0.528C0.136,-0.528 0.057,-0.478 0.057,-0.376C0.057,-0.28 0.128,-0.241 0.223,-0.227L0.264,-0.221C0.332,-0.211 0.354,-0.18 0.354,-0.14C0.354,-0.087 0.314,-0.056 0.246,-0.056C0.181,-0.056 0.133,-0.085 0.093,-0.135L0.036,-0.089C0.082,-0.028 0.145,0.012 0.24,0.012Z" style="fill-rule:nonzero;"/>
        </g>
        <rect x="826.199" y="618.296" width="199.1" height="1.883"/>
    </g>
    <g transform="matrix(0.931722,0,0,0.330949,66.4668,298.078)">
        <rect x="121.853" y="425.811" width="815.694" height="3.022"/>
    </g>
    <g transform="matrix(0.931722,0,0,0.330949,66.4668,418.078)">
        <rect x="121.853" y="425.811" width="815.694" height="3.022"/>
    </g>
    <g transform="matrix(0.882684,8.17107e-17,-6.27528e-17,-0.165475,112.442,570.961)">
        <rect x="121.853" y="425.811" width="815.694" height="3.022" style="fill:rgb(78,78,78);"/>
    </g>
    <g transform="matrix(0.882684,8.17107e-17,-6.27528e-17,-0.165475,112.442,811.018)">
        <rect x="121.853" y="425.811" width="815.694" height="3.022" style="fill:rgb(78,78,78);"/>
    </g>
    <g transform="matrix(0.882684,8.17107e-17,-6.27528e-17,-0.165475,112.442,1053.55)">
        <rect x="121.853" y="425.811" width="815.694" height="3.022" style="fill:rgb(78,78,78);"/>
    </g>
    <g transform="matrix(0.882684,8.17107e-17,-6.27528e-17,-0.165475,112.442,1290.27)">
        <rect x="121.853" y="425.811" width="815.694" height="3.022" style="fill:rgb(78,78,78);"/>
    </g>
    <g transform="matrix(0.882684,8.17107e-17,-6.27528e-17,-0.165475,112.442,1530.7)">
        <rect x="121.853" y="425.811" width="815.694" height="3.022" style="fill:rgb(78,78,78);"/>
    </g>
    <g transform="matrix(0.882684,8.17107e-17,-6.27528e-17,-0.165475,112.442,1774.92)">
        <rect x="121.853" y="425.811" width="815.694" height="3.022" style="fill:rgb(78,78,78);"/>
    </g>
    <g transform="matrix(0.882684,8.17107e-17,-6.27528e-17,-0.165475,112.442,690.94)">
        <rect x="121.853" y="425.811" width="815.694" height="3.022" style="fill:rgb(78,78,78);"/>
    </g>
    <g transform="matrix(0.882684,8.17107e-17,-6.27528e-17,-0.165475,112.442,930.997)">
        <rect x="121.853" y="425.811" width="815.694" height="3.022" style="fill:rgb(78,78,78);"/>
    </g>
    <g transform="matrix(0.882684,8.17107e-17,-6.27528e-17,-0.165475,112.442,1173.53)">
        <rect x="121.853" y="425.811" width="815.694" height="3.022" style="fill:rgb(78,78,78);"/>
    </g>
    <g transform="matrix(0.882684,8.17107e-17,-6.27528e-17,-0.165475,112.442,1410.25)">
        <rect x="121.853" y="425.811" width="815.694" height="3.022" style="fill:rgb(78,78,78);"/>
    </g>
    <g transform="matrix(0.882684,8.17107e-17,-6.27528e-17,-0.165475,112.442,1650.68)">
        <rect x="121.853" y="425.811" width="815.694" height="3.022" style="fill:rgb(78,78,78);"/>
    </g>
    <g transform="matrix(0.882684,8.17107e-17,-6.27528e-17,-0.165475,112.442,1894.9)">
        <rect x="121.853" y="425.811" width="815.694" height="3.022" style="fill:rgb(78,78,78);"/>
    </g>
    <g transform="matrix(0.931722,0,0,0.330949,66.4668,539.078)">
        <rect x="121.853" y="425.811" width="815.694" height="3.022"/>
    </g>
    <g transform="matrix(0.931722,0,0,0.330949,66.4668,658.078)">
        <rect x="121.853" y="425.811" width="815.694" height="3.022"/>
    </g>
    <g transform="matrix(0.931722,0,0,0.330949,66.4668,778.078)">
        <rect x="121.853" y="425.811" width="815.694" height="3.022"/>
    </g>
    <g transform="matrix(0.931722,0,0,0.330949,66.4668,898.078)">
        <rect x="121.853" y="425.811" width="815.694" height="3.022"/>
    </g>
    <g transform="matrix(0.931722,0,0,0.330949,66.4668,1259.08)">
        <rect x="121.853" y="425.811" width="815.694" height="3.022"/>
    </g>
    <g transform="matrix(0.931722,0,0,0.330949,66.4668,1018.08)">
        <rect x="121.853" y="425.811" width="815.694" height="3.022"/>
    </g>
    <g transform="matrix(0.931722,0,0,0.330949,66.4668,1379.08)">
        <rect x="121.853" y="425.811" width="815.694" height="3.022"/>
    </g>
    <g transform="matrix(0.931722,0,0,0.330949,66.4668,1138.08)">
        <rect x="121.853" y="425.811" width="815.694" height="3.022"/>
    </g>
    <g transform="matrix(0.931722,0,0,0.330949,66.4668,1499.08)">
        <rect x="121.853" y="425.811" width="815.694" height="3.022"/>
    </g>
    <g transform="matrix(0.931722,0,0,0.330949,66.4668,1619.74)">
        <rect x="121.853" y="425.811" width="815.694" height="3.022"/>
    </g>
    <g transform="matrix(1.08248e-16,1.76782,-0.330949,2.02648e-17,1080.92,224.586)">
        <rect x="121.853" y="425.811" width="815.694" height="3.022"/>
    </g>
    <g transform="matrix(1.08248e-16,1.76782,-0.330949,2.02648e-17,841.922,223.586)">
        <rect x="121.853" y="425.811" width="815.694" height="3.022"/>
    </g>
    <g transform="matrix(1.08248e-16,1.76782,-0.330949,2.02648e-17,601.422,223.586)">
        <rect x="121.853" y="425.811" width="815.694" height="3.022"/>
    </g>
    <g transform="matrix(1.08248e-16,1.76782,-0.330949,2.02648e-17,360.922,223.586)">
        <rect x="121.853" y="425.811" width="815.694" height="3.022"/>
    </g>
    <g transform="matrix(1,0,0,1,1.89605,-108.628)">
        <g transform="matrix(31.3889,0,0,31.3889,625.445,182.244)">
            <path d="M0.077,-0L0.34,-0C0.525,-0 0.647,-0.117 0.647,-0.349C0.647,-0.581 0.525,-0.698 0.34,-0.698L0.077,-0.698L0.077,-0ZM0.229,-0.135L0.229,-0.563L0.34,-0.563C0.43,-0.563 0.486,-0.514 0.486,-0.403L0.486,-0.295C0.486,-0.184 0.43,-0.135 0.34,-0.135L0.229,-0.135Z" style="fill-rule:nonzero;"/>
        </g>
        <g transform="matrix(31.3889,0,0,31.3889,647.324,182.244)">
            <path d="M0.539,-0L0.539,-0.115L0.49,-0.115L0.49,-0.345C0.49,-0.469 0.414,-0.537 0.266,-0.537C0.156,-0.537 0.096,-0.499 0.054,-0.437L0.142,-0.359C0.165,-0.391 0.196,-0.421 0.255,-0.421C0.317,-0.421 0.342,-0.389 0.342,-0.338L0.342,-0.305L0.259,-0.305C0.12,-0.305 0.034,-0.252 0.034,-0.141C0.034,-0.05 0.092,0.012 0.197,0.012C0.277,0.012 0.335,-0.024 0.351,-0.092L0.357,-0.092C0.366,-0.036 0.404,-0 0.457,-0L0.539,-0ZM0.252,-0.091C0.208,-0.091 0.183,-0.109 0.183,-0.147L0.183,-0.162C0.183,-0.2 0.213,-0.221 0.27,-0.221L0.342,-0.221L0.342,-0.159C0.342,-0.111 0.301,-0.091 0.252,-0.091Z" style="fill-rule:nonzero;"/>
        </g>
        <g transform="matrix(31.3889,0,0,31.3889,665.184,182.244)">
            <path d="M0.143,-0.581C0.203,-0.581 0.229,-0.612 0.229,-0.654L0.229,-0.676C0.229,-0.718 0.203,-0.749 0.143,-0.749C0.083,-0.749 0.057,-0.718 0.057,-0.676L0.057,-0.654C0.057,-0.612 0.083,-0.581 0.143,-0.581ZM0.069,-0L0.217,-0L0.217,-0.525L0.069,-0.525L0.069,-0Z" style="fill-rule:nonzero;"/>
        </g>
        <g transform="matrix(31.3889,0,0,31.3889,674.161,182.244)">
            <path d="M0.283,-0L0.283,-0.115L0.217,-0.115L0.217,-0.74L0.069,-0.74L0.069,-0.144C0.069,-0.051 0.115,-0 0.216,-0L0.283,-0Z" style="fill-rule:nonzero;"/>
        </g>
        <g transform="matrix(31.3889,0,0,31.3889,683.484,182.244)">
            <path d="M0.313,-0.28L0.274,-0.128L0.268,-0.128L0.23,-0.28L0.153,-0.525L0.006,-0.525L0.19,0.027L0.172,0.085L0.073,0.085L0.073,0.2L0.165,0.2C0.255,0.2 0.299,0.162 0.326,0.081L0.528,-0.525L0.39,-0.525L0.313,-0.28Z" style="fill-rule:nonzero;"/>
        </g>
        <g transform="matrix(31.3889,0,0,31.3889,707.653,182.244)">
            <path d="M0.229,-0L0.229,-0.252L0.407,-0.252C0.537,-0.252 0.619,-0.343 0.619,-0.475C0.619,-0.607 0.537,-0.698 0.407,-0.698L0.077,-0.698L0.077,-0L0.229,-0ZM0.229,-0.566L0.389,-0.566C0.434,-0.566 0.462,-0.542 0.462,-0.497L0.462,-0.453C0.462,-0.408 0.434,-0.384 0.389,-0.384L0.229,-0.384L0.229,-0.566Z" style="fill-rule:nonzero;"/>
        </g>
        <g transform="matrix(31.3889,0,0,31.3889,728.244,182.244)">
            <path d="M0.283,-0L0.283,-0.115L0.217,-0.115L0.217,-0.74L0.069,-0.74L0.069,-0.144C0.069,-0.051 0.115,-0 0.216,-0L0.283,-0Z" style="fill-rule:nonzero;"/>
        </g>
        <g transform="matrix(31.3889,0,0,31.3889,737.755,182.244)">
            <path d="M0.539,-0L0.539,-0.115L0.49,-0.115L0.49,-0.345C0.49,-0.469 0.414,-0.537 0.266,-0.537C0.156,-0.537 0.096,-0.499 0.054,-0.437L0.142,-0.359C0.165,-0.391 0.196,-0.421 0.255,-0.421C0.317,-0.421 0.342,-0.389 0.342,-0.338L0.342,-0.305L0.259,-0.305C0.12,-0.305 0.034,-0.252 0.034,-0.141C0.034,-0.05 0.092,0.012 0.197,0.012C0.277,0.012 0.335,-0.024 0.351,-0.092L0.357,-0.092C0.366,-0.036 0.404,-0 0.457,-0L0.539,-0ZM0.252,-0.091C0.208,-0.091 0.183,-0.109 0.183,-0.147L0.183,-0.162C0.183,-0.2 0.213,-0.221 0.27,-0.221L0.342,-0.221L0.342,-0.159C0.342,-0.111 0.301,-0.091 0.252,-0.091Z" style="fill-rule:nonzero;"/>
        </g>
        <g transform="matrix(31.3889,0,0,31.3889,755.615,182.244)">
            <path d="M0.217,-0L0.217,-0.34C0.217,-0.392 0.264,-0.417 0.312,-0.417C0.366,-0.417 0.385,-0.384 0.385,-0.317L0.385,-0L0.533,-0L0.533,-0.329C0.533,-0.461 0.476,-0.537 0.369,-0.537C0.286,-0.537 0.242,-0.491 0.223,-0.436L0.217,-0.436L0.217,-0.525L0.069,-0.525L0.069,-0L0.217,-0Z" style="fill-rule:nonzero;"/>
        </g>
    </g>
    <g transform="matrix(1.07143,0,0,0.11417,-89.1416,71.2581)">
        <rect x="980" y="80" width="280" height="10.975"/>
    </g>
    <g>
        <g transform="matrix(0.201712,0,0,0.201712,766.356,351.247)">
            <circle cx="960" cy="440" r="4.958"/>
        </g>
        <g transform="matrix(0.201712,0,0,0.201712,926.356,351.178)">
            <circle cx="960" cy="440" r="4.958"/>
        </g>
        <g transform="matrix(0.201712,0,0,0.201712,846.356,351.247)">
            <circle cx="960" cy="440" r="4.958"/>
        </g>
        <g transform="matrix(0.201712,0,0,0.201712,1006.36,351.178)">
            <circle cx="960" cy="440" r="4.958"/>
        </g>
        <g transform="matrix(0.201712,0,0,0.201712,1086.36,351.178)">
            <circle cx="960" cy="440" r="4.958"/>
        </g>
        <g transform="matrix(0.201712,0,0,0.201712,806.356,351.247)">
            <circle cx="960" cy="440" r="4.958"/>
        </g>
        <g transform="matrix(0.201712,0,0,0.201712,966.356,351.178)">
            <circle cx="960" cy="440" r="4.958"/>
        </g>
        <g transform="matrix(0.201712,0,0,0.201712,886.356,351.247)">
            <circle cx="960" cy="440" r="4.958"/>
        </g>
        <g transform="matrix(0.201712,0,0,0.201712,1046.36,351.178)">
            <circle cx="960" cy="440" r="4.958"/>
        </g>
        <g transform="matrix(0.201712,0,0,0.201712,1126.36,351.178)">
            <circle cx="960" cy="440" r="4.958"/>
        </g>
        <g transform="matrix(0.201712,0,0,0.201712,1166.36,351.178)">
            <circle cx="960" cy="440" r="4.958"/>
        </g>
    </g>
    <g transform="matrix(1,0,0,1,0,240)">
        <g transform="matrix(0.201712,0,0,0.201712,766.356,351.247)">
            <circle cx="960" cy="440" r="4.958"/>
        </g>
        <g transform="matrix(0.201712,0,0,0.201712,926.356,351.178)">
            <circle cx="960" cy="440" r="4.958"/>
        </g>
        <g transform="matrix(0.201712,0,0,0.201712,846.356,351.247)">
            <circle cx="960" cy="440" r="4.958"/>
        </g>
        <g transform="matrix(0.201712,0,0,0.201712,1006.36,351.178)">
            <circle cx="960" cy="440" r="4.958"/>
        </g>
        <g transform="matrix(0.201712,0,0,0.201712,1086.36,351.178)">
            <circle cx="960" cy="440" r="4.958"/>
        </g>
        <g transform="matrix(0.201712,0,0,0.201712,806.356,351.247)">
            <circle cx="960" cy="440" r="4.958"/>
        </g>
        <g transform="matrix(0.201712,0,0,0.201712,966.356,351.178)">
            <circle cx="960" cy="440" r="4.958"/>
        </g>
        <g transform="matrix(0.201712,0,0,0.201712,886.356,351.247)">
            <circle cx="960" cy="440" r="4.958"/>
        </g>
        <g transform="matrix(0.201712,0,0,0.201712,1046.36,351.178)">
            <circle cx="960" cy="440" r="4.958"/>
        </g>
        <g transform="matrix(0.201712,0,0,0.201712,1126.36,351.178)">
            <circle cx="960" cy="440" r="4.958"/>
        </g>
        <g transform="matrix(0.201712,0,0,0.201712,1166.36,351.178)">
            <circle cx="960" cy="440" r="4.958"/>
        </g>
    </g>
    <g transform="matrix(1,0,0,1,0,640)">
        <g transform="matrix(0.201712,0,0,0.201712,766.356,351.247)">
            <circle cx="960" cy="440" r="4.958"/>
        </g>
        <g transform="matrix(0.201712,0,0,0.201712,926.356,351.178)">
            <circle cx="960" cy="440" r="4.958"/>
        </g>
        <g transform="matrix(0.201712,0,0,0.201712,846.356,351.247)">
            <circle cx="960" cy="440" r="4.958"/>
        </g>
        <g transform="matrix(0.201712,0,0,0.201712,1006.36,351.178)">
            <circle cx="960" cy="440" r="4.958"/>
        </g>
        <g transform="matrix(0.201712,0,0,0.201712,1086.36,351.178)">
            <circle cx="960" cy="440" r="4.958"/>
        </g>
        <g transform="matrix(0.201712,0,0,0.201712,806.356,351.247)">
            <circle cx="960" cy="440" r="4.958"/>
        </g>
        <g transform="matrix(0.201712,0,0,0.201712,966.356,351.178)">
            <circle cx="960" cy="440" r="4.958"/>
        </g>
        <g transform="matrix(0.201712,0,0,0.201712,886.356,351.247)">
            <circle cx="960" cy="440" r="4.958"/>
        </g>
        <g transform="matrix(0.201712,0,0,0.201712,1046.36,351.178)">
            <circle cx="960" cy="440" r="4.958"/>
        </g>
        <g transform="matrix(0.201712,0,0,0.201712,1126.36,351.178)">
            <circle cx="960" cy="440" r="4.958"/>
        </g>
        <g transform="matrix(0.201712,0,0,0.201712,1166.36,351.178)">
            <circle cx="960" cy="440" r="4.958"/>
        </g>
    </g>
    <g transform="matrix(1,0,0,1,0,920)">
        <g transform="matrix(0.201712,0,0,0.201712,766.356,351.247)">
            <circle cx="960" cy="440" r="4.958"/>
        </g>
        <g transform="matrix(0.201712,0,0,0.201712,926.356,351.178)">
            <circle cx="960" cy="440" r="4.958"/>
        </g>
        <g transform="matrix(0.201712,0,0,0.201712,846.356,351.247)">
            <circle cx="960" cy="440" r="4.958"/>
        </g>
        <g transform="matrix(0.201712,0,0,0.201712,1006.36,351.178)">
            <circle cx="960" cy="440" r="4.958"/>
        </g>
        <g transform="matrix(0.201712,0,0,0.201712,1086.36,351.178)">
            <circle cx="960" cy="440" r="4.958"/>
        </g>
        <g transform="matrix(0.201712,0,0,0.201712,806.356,351.247)">
            <circle cx="960" cy="440" r="4.958"/>
        </g>
        <g transform="matrix(0.201712,0,0,0.201712,966.356,351.178)">
            <circle cx="960" cy="440" r="4.958"/>
        </g>
        <g transform="matrix(0.201712,0,0,0.201712,886.356,351.247)">
            <circle cx="960" cy="440" r="4.958"/>
        </g>
        <g transform="matrix(0.201712,0,0,0.201712,1046.36,351.178)">
            <circle cx="960" cy="440" r="4.958"/>
        </g>
        <g transform="matrix(0.201712,0,0,0.201712,1126.36,351.178)">
            <circle cx="960" cy="440" r="4.958"/>
        </g>
        <g transform="matrix(0.201712,0,0,0.201712,1166.36,351.178)">
            <circle cx="960" cy="440" r="4.958"/>
        </g>
    </g>
    <g transform="matrix(1,0,0,1,0,40)">
        <g transform="matrix(0.201712,0,0,0.201712,766.356,351.247)">
            <circle cx="960" cy="440" r="4.958"/>
        </g>
        <g transform="matrix(0.201712,0,0,0.201712,926.356,351.178)">
            <circle cx="960" cy="440" r="4.958"/>
        </g>
        <g transform="matrix(0.201712,0,0,0.201712,846.356,351.247)">
            <circle cx="960" cy="440" r="4.958"/>
        </g>
        <g transform="matrix(0.201712,0,0,0.201712,1006.36,351.178)">
            <circle cx="960" cy="440" r="4.958"/>
        </g>
        <g transform="matrix(0.201712,0,0,0.201712,1086.36,351.178)">
            <circle cx="960" cy="440" r="4.958"/>
        </g>
        <g transform="matrix(0.201712,0,0,0.201712,806.356,351.247)">
            <circle cx="960" cy="440" r="4.958"/>
        </g>
        <g transform="matrix(0.201712,0,0,0.201712,966.356,351.178)">
            <circle cx="960" cy="440" r="4.958"/>
        </g>
        <g transform="matrix(0.201712,0,0,0.201712,886.356,351.247)">
            <circle cx="960" cy="440" r="4.958"/>
        </g>
        <g transform="matrix(0.201712,0,0,0.201712,1046.36,351.178)">
            <circle cx="960" cy="440" r="4.958"/>
        </g>
        <g transform="matrix(0.201712,0,0,0.201712,1126.36,351.178)">
            <circle cx="960" cy="440" r="4.958"/>
        </g>
        <g transform="matrix(0.201712,0,0,0.201712,1166.36,351.178)">
            <circle cx="960" cy="440" r="4.958"/>
        </g>
    </g>
    <g transform="matrix(1,0,0,1,0,440)">
        <g transform="matrix(0.201712,0,0,0.201712,766.356,351.247)">
            <circle cx="960" cy="440" r="4.958"/>
        </g>
        <g transform="matrix(0.201712,0,0,0.201712,926.356,351.178)">
            <circle cx="960" cy="440" r="4.958"/>
        </g>
        <g transform="matrix(0.201712,0,0,0.201712,846.356,351.247)">
            <circle cx="960" cy="440" r="4.958"/>
        </g>
        <g transform="matrix(0.201712,0,0,0.201712,1006.36,351.178)">
            <circle cx="960" cy="440" r="4.958"/>
        </g>
        <g transform="matrix(0.201712,0,0,0.201712,1086.36,351.178)">
            <circle cx="960" cy="440" r="4.958"/>
        </g>
        <g transform="matrix(0.201712,0,0,0.201712,806.356,351.247)">
            <circle cx="960" cy="440" r="4.958"/>
        </g>
        <g transform="matrix(0.201712,0,0,0.201712,966.356,351.178)">
            <circle cx="960" cy="440" r="4.958"/>
        </g>
        <g transform="matrix(0.201712,0,0,0.201712,886.356,351.247)">
            <circle cx="960" cy="440" r="4.958"/>
        </g>
        <g transform="matrix(0.201712,0,0,0.201712,1046.36,351.178)">
            <circle cx="960" cy="440" r="4.958"/>
        </g>
        <g transform="matrix(0.201712,0,0,0.201712,1126.36,351.178)">
            <circle cx="960" cy="440" r="4.958"/>
        </g>
        <g transform="matrix(0.201712,0,0,0.201712,1166.36,351.178)">
            <circle cx="960" cy="440" r="4.958"/>
        </g>
    </g>
    <g transform="matrix(1,0,0,1,0,280)">
        <g transform="matrix(0.201712,0,0,0.201712,766.356,351.247)">
            <circle cx="960" cy="440" r="4.958"/>
        </g>
        <g transform="matrix(0.201712,0,0,0.201712,926.356,351.178)">
            <circle cx="960" cy="440" r="4.958"/>
        </g>
        <g transform="matrix(0.201712,0,0,0.201712,846.356,351.247)">
            <circle cx="960" cy="440" r="4.958"/>
        </g>
        <g transform="matrix(0.201712,0,0,0.201712,1006.36,351.178)">
            <circle cx="960" cy="440" r="4.958"/>
        </g>
        <g transform="matrix(0.201712,0,0,0.201712,1086.36,351.178)">
            <circle cx="960" cy="440" r="4.958"/>
        </g>
        <g transform="matrix(0.201712,0,0,0.201712,806.356,351.247)">
            <circle cx="960" cy="440" r="4.958"/>
        </g>
        <g transform="matrix(0.201712,0,0,0.201712,966.356,351.178)">
            <circle cx="960" cy="440" r="4.958"/>
        </g>
        <g transform="matrix(0.201712,0,0,0.201712,886.356,351.247)">
            <circle cx="960" cy="440" r="4.958"/>
        </g>
        <g transform="matrix(0.201712,0,0,0.201712,1046.36,351.178)">
            <circle cx="960" cy="440" r="4.958"/>
        </g>
        <g transform="matrix(0.201712,0,0,0.201712,1126.36,351.178)">
            <circle cx="960" cy="440" r="4.958"/>
        </g>
        <g transform="matrix(0.201712,0,0,0.201712,1166.36,351.178)">
            <circle cx="960" cy="440" r="4.958"/>
        </g>
    </g>
    <g transform="matrix(1,0,0,1,0,680)">
        <g transform="matrix(0.201712,0,0,0.201712,766.356,351.247)">
            <circle cx="960" cy="440" r="4.958"/>
        </g>
        <g transform="matrix(0.201712,0,0,0.201712,926.356,351.178)">
            <circle cx="960" cy="440" r="4.958"/>
        </g>
        <g transform="matrix(0.201712,0,0,0.201712,846.356,351.247)">
            <circle cx="960" cy="440" r="4.958"/>
        </g>
        <g transform="matrix(0.201712,0,0,0.201712,1006.36,351.178)">
            <circle cx="960" cy="440" r="4.958"/>
        </g>
        <g transform="matrix(0.201712,0,0,0.201712,1086.36,351.178)">
            <circle cx="960" cy="440" r="4.958"/>
        </g>
        <g transform="matrix(0.201712,0,0,0.201712,806.356,351.247)">
            <circle cx="960" cy="440" r="4.958"/>
        </g>
        <g transform="matrix(0.201712,0,0,0.201712,966.356,351.178)">
            <circle cx="960" cy="440" r="4.958"/>
        </g>
        <g transform="matrix(0.201712,0,0,0.201712,886.356,351.247)">
            <circle cx="960" cy="440" r="4.958"/>
        </g>
        <g transform="matrix(0.201712,0,0,0.201712,1046.36,351.178)">
            <circle cx="960" cy="440" r="4.958"/>
        </g>
        <g transform="matrix(0.201712,0,0,0.201712,1126.36,351.178)">
            <circle cx="960" cy="440" r="4.958"/>
        </g>
        <g transform="matrix(0.201712,0,0,0.201712,1166.36,351.178)">
            <circle cx="960" cy="440" r="4.958"/>
        </g>
    </g>
    <g transform="matrix(1,0,0,1,0,960)">
        <g transform="matrix(0.201712,0,0,0.201712,766.356,351.247)">
            <circle cx="960" cy="440" r="4.958"/>
        </g>
        <g transform="matrix(0.201712,0,0,0.201712,926.356,351.178)">
            <circle cx="960" cy="440" r="4.958"/>
        </g>
        <g transform="matrix(0.201712,0,0,0.201712,846.356,351.247)">
            <circle cx="960" cy="440" r="4.958"/>
        </g>
        <g transform="matrix(0.201712,0,0,0.201712,1006.36,351.178)">
            <circle cx="960" cy="440" r="4.958"/>
        </g>
        <g transform="matrix(0.201712,0,0,0.201712,1086.36,351.178)">
            <circle cx="960" cy="440" r="4.958"/>
        </g>
        <g transform="matrix(0.201712,0,0,0.201712,806.356,351.247)">
            <circle cx="960" cy="440" r="4.958"/>
        </g>
        <g transform="matrix(0.201712,0,0,0.201712,966.356,351.178)">
            <circle cx="960" cy="440" r="4.958"/>
        </g>
        <g transform="matrix(0.201712,0,0,0.201712,886.356,351.247)">
            <circle cx="960" cy="440" r="4.958"/>
        </g>
        <g transform="matrix(0.201712,0,0,0.201712,1046.36,351.178)">
            <circle cx="960" cy="440" r="4.958"/>
        </g>
        <g transform="matrix(0.201712,0,0,0.201712,1126.36,351.178)">
            <circle cx="960" cy="440" r="4.958"/>
        </g>
        <g transform="matrix(0.201712,0,0,0.201712,1166.36,351.178)">
            <circle cx="960" cy="440" r="4.958"/>
        </g>
    </g>
    <g transform="matrix(1,0,0,1,0,1120)">
        <g transform="matrix(0.201712,0,0,0.201712,766.356,351.247)">
            <circle cx="960" cy="440" r="4.958"/>
        </g>
        <g transform="matrix(0.201712,0,0,0.201712,926.356,351.178)">
            <circle cx="960" cy="440" r="4.958"/>
        </g>
        <g transform="matrix(0.201712,0,0,0.201712,846.356,351.247)">
            <circle cx="960" cy="440" r="4.958"/>
        </g>
        <g transform="matrix(0.201712,0,0,0.201712,1006.36,351.178)">
            <circle cx="960" cy="440" r="4.958"/>
        </g>
        <g transform="matrix(0.201712,0,0,0.201712,1086.36,351.178)">
            <circle cx="960" cy="440" r="4.958"/>
        </g>
        <g transform="matrix(0.201712,0,0,0.201712,806.356,351.247)">
            <circle cx="960" cy="440" r="4.958"/>
        </g>
        <g transform="matrix(0.201712,0,0,0.201712,966.356,351.178)">
            <circle cx="960" cy="440" r="4.958"/>
        </g>
        <g transform="matrix(0.201712,0,0,0.201712,886.356,351.247)">
            <circle cx="960" cy="440" r="4.958"/>
        </g>
        <g transform="matrix(0.201712,0,0,0.201712,1046.36,351.178)">
            <circle cx="960" cy="440" r="4.958"/>
        </g>
        <g transform="matrix(0.201712,0,0,0.201712,1126.36,351.178)">
            <circle cx="960" cy="440" r="4.958"/>
        </g>
        <g transform="matrix(0.201712,0,0,0.201712,1166.36,351.178)">
            <circle cx="960" cy="440" r="4.958"/>
        </g>
    </g>
    <g transform="matrix(1,0,0,1,0,80)">
        <g transform="matrix(0.201712,0,0,0.201712,766.356,351.247)">
            <circle cx="960" cy="440" r="4.958"/>
        </g>
        <g transform="matrix(0.201712,0,0,0.201712,926.356,351.178)">
            <circle cx="960" cy="440" r="4.958"/>
        </g>
        <g transform="matrix(0.201712,0,0,0.201712,846.356,351.247)">
            <circle cx="960" cy="440" r="4.958"/>
        </g>
        <g transform="matrix(0.201712,0,0,0.201712,1006.36,351.178)">
            <circle cx="960" cy="440" r="4.958"/>
        </g>
        <g transform="matrix(0.201712,0,0,0.201712,1086.36,351.178)">
            <circle cx="960" cy="440" r="4.958"/>
        </g>
        <g transform="matrix(0.201712,0,0,0.201712,806.356,351.247)">
            <circle cx="960" cy="440" r="4.958"/>
        </g>
        <g transform="matrix(0.201712,0,0,0.201712,966.356,351.178)">
            <circle cx="960" cy="440" r="4.958"/>
        </g>
        <g transform="matrix(0.201712,0,0,0.201712,886.356,351.247)">
            <circle cx="960" cy="440" r="4.958"/>
        </g>
        <g transform="matrix(0.201712,0,0,0.201712,1046.36,351.178)">
            <circle cx="960" cy="440" r="4.958"/>
        </g>
        <g transform="matrix(0.201712,0,0,0.201712,1126.36,351.178)">
            <circle cx="960" cy="440" r="4.958"/>
        </g>
        <g transform="matrix(0.201712,0,0,0.201712,1166.36,351.178)">
            <circle cx="960" cy="440" r="4.958"/>
        </g>
    </g>
    <g transform="matrix(1,0,0,1,0,480)">
        <g transform="matrix(0.201712,0,0,0.201712,766.356,351.247)">
            <circle cx="960" cy="440" r="4.958"/>
        </g>
        <g transform="matrix(0.201712,0,0,0.201712,926.356,351.178)">
            <circle cx="960" cy="440" r="4.958"/>
        </g>
        <g transform="matrix(0.201712,0,0,0.201712,846.356,351.247)">
            <circle cx="960" cy="440" r="4.958"/>
        </g>
        <g transform="matrix(0.201712,0,0,0.201712,1006.36,351.178)">
            <circle cx="960" cy="440" r="4.958"/>
        </g>
        <g transform="matrix(0.201712,0,0,0.201712,1086.36,351.178)">
            <circle cx="960" cy="440" r="4.958"/>
        </g>
        <g transform="matrix(0.201712,0,0,0.201712,806.356,351.247)">
            <circle cx="960" cy="440" r="4.958"/>
        </g>
        <g transform="matrix(0.201712,0,0,0.201712,966.356,351.178)">
            <circle cx="960" cy="440" r="4.958"/>
        </g>
        <g transform="matrix(0.201712,0,0,0.201712,886.356,351.247)">
            <circle cx="960" cy="440" r="4.958"/>
        </g>
        <g transform="matrix(0.201712,0,0,0.201712,1046.36,351.178)">
            <circle cx="960" cy="440" r="4.958"/>
        </g>
        <g transform="matrix(0.201712,0,0,0.201712,1126.36,351.178)">
            <circle cx="960" cy="440" r="4.958"/>
        </g>
        <g transform="matrix(0.201712,0,0,0.201712,1166.36,351.178)">
            <circle cx="960" cy="440" r="4.958"/>
        </g>
    </g>
    <g transform="matrix(1,0,0,1,0,320)">
        <g transform="matrix(0.201712,0,0,0.201712,766.356,351.247)">
            <circle cx="960" cy="440" r="4.958"/>
        </g>
        <g transform="matrix(0.201712,0,0,0.201712,926.356,351.178)">
            <circle cx="960" cy="440" r="4.958"/>
        </g>
        <g transform="matrix(0.201712,0,0,0.201712,846.356,351.247)">
            <circle cx="960" cy="440" r="4.958"/>
        </g>
        <g transform="matrix(0.201712,0,0,0.201712,1006.36,351.178)">
            <circle cx="960" cy="440" r="4.958"/>
        </g>
        <g transform="matrix(0.201712,0,0,0.201712,1086.36,351.178)">
            <circle cx="960" cy="440" r="4.958"/>
        </g>
        <g transform="matrix(0.201712,0,0,0.201712,806.356,351.247)">
            <circle cx="960" cy="440" r="4.958"/>
        </g>
        <g transform="matrix(0.201712,0,0,0.201712,966.356,351.178)">
            <circle cx="960" cy="440" r="4.958"/>
        </g>
        <g transform="matrix(0.201712,0,0,0.201712,886.356,351.247)">
            <circle cx="960" cy="440" r="4.958"/>
        </g>
        <g transform="matrix(0.201712,0,0,0.201712,1046.36,351.178)">
            <circle cx="960" cy="440" r="4.958"/>
        </g>
        <g transform="matrix(0.201712,0,0,0.201712,1126.36,351.178)">
            <circle cx="960" cy="440" r="4.958"/>
        </g>
        <g transform="matrix(0.201712,0,0,0.201712,1166.36,351.178)">
            <circle cx="960" cy="440" r="4.958"/>
        </g>
    </g>
    <g transform="matrix(1,0,0,1,0,720)">
        <g transform="matrix(0.201712,0,0,0.201712,766.356,351.247)">
            <circle cx="960" cy="440" r="4.958"/>
        </g>
        <g transform="matrix(0.201712,0,0,0.201712,926.356,351.178)">
            <circle cx="960" cy="440" r="4.958"/>
        </g>
        <g transform="matrix(0.201712,0,0,0.201712,846.356,351.247)">
            <circle cx="960" cy="440" r="4.958"/>
        </g>
        <g transform="matrix(0.201712,0,0,0.201712,1006.36,351.178)">
            <circle cx="960" cy="440" r="4.958"/>
        </g>
        <g transform="matrix(0.201712,0,0,0.201712,1086.36,351.178)">
            <circle cx="960" cy="440" r="4.958"/>
        </g>
        <g transform="matrix(0.201712,0,0,0.201712,806.356,351.247)">
            <circle cx="960" cy="440" r="4.958"/>
        </g>
        <g transform="matrix(0.201712,0,0,0.201712,966.356,351.178)">
            <circle cx="960" cy="440" r="4.958"/>
        </g>
        <g transform="matrix(0.201712,0,0,0.201712,886.356,351.247)">
            <circle cx="960" cy="440" r="4.958"/>
        </g>
        <g transform="matrix(0.201712,0,0,0.201712,1046.36,351.178)">
            <circle cx="960" cy="440" r="4.958"/>
        </g>
        <g transform="matrix(0.201712,0,0,0.201712,1126.36,351.178)">
            <circle cx="960" cy="440" r="4.958"/>
        </g>
        <g transform="matrix(0.201712,0,0,0.201712,1166.36,351.178)">
            <circle cx="960" cy="440" r="4.958"/>
        </g>
    </g>
    <g transform="matrix(1,0,0,1,0,1000)">
        <g transform="matrix(0.201712,0,0,0.201712,766.356,351.247)">
            <circle cx="960" cy="440" r="4.958"/>
        </g>
        <g transform="matrix(0.201712,0,0,0.201712,926.356,351.178)">
            <circle cx="960" cy="440" r="4.958"/>
        </g>
        <g transform="matrix(0.201712,0,0,0.201712,846.356,351.247)">
            <circle cx="960" cy="440" r="4.958"/>
        </g>
        <g transform="matrix(0.201712,0,0,0.201712,1006.36,351.178)">
            <circle cx="960" cy="440" r="4.958"/>
        </g>
        <g transform="matrix(0.201712,0,0,0.201712,1086.36,351.178)">
            <circle cx="960" cy="440" r="4.958"/>
        </g>
        <g transform="matrix(0.201712,0,0,0.201712,806.356,351.247)">
            <circle cx="960" cy="440" r="4.958"/>
        </g>
        <g transform="matrix(0.201712,0,0,0.201712,966.356,351.178)">
            <circle cx="960" cy="440" r="4.958"/>
        </g>
        <g transform="matrix(0.201712,0,0,0.201712,886.356,351.247)">
            <circle cx="960" cy="440" r="4.958"/>
        </g>
        <g transform="matrix(0.201712,0,0,0.201712,1046.36,351.178)">
            <circle cx="960" cy="440" r="4.958"/>
        </g>
        <g transform="matrix(0.201712,0,0,0.201712,1126.36,351.178)">
            <circle cx="960" cy="440" r="4.958"/>
        </g>
        <g transform="matrix(0.201712,0,0,0.201712,1166.36,351.178)">
            <circle cx="960" cy="440" r="4.958"/>
        </g>
    </g>
    <g transform="matrix(1,0,0,1,0,1160)">
        <g transform="matrix(0.201712,0,0,0.201712,766.356,351.247)">
            <circle cx="960" cy="440" r="4.958"/>
        </g>
        <g transform="matrix(0.201712,0,0,0.201712,926.356,351.178)">
            <circle cx="960" cy="440" r="4.958"/>
        </g>
        <g transform="matrix(0.201712,0,0,0.201712,846.356,351.247)">
            <circle cx="960" cy="440" r="4.958"/>
        </g>
        <g transform="matrix(0.201712,0,0,0.201712,1006.36,351.178)">
            <circle cx="960" cy="440" r="4.958"/>
        </g>
        <g transform="matrix(0.201712,0,0,0.201712,1086.36,351.178)">
            <circle cx="960" cy="440" r="4.958"/>
        </g>
        <g transform="matrix(0.201712,0,0,0.201712,806.356,351.247)">
            <circle cx="960" cy="440" r="4.958"/>
        </g>
        <g transform="matrix(0.201712,0,0,0.201712,966.356,351.178)">
            <circle cx="960" cy="440" r="4.958"/>
        </g>
        <g transform="matrix(0.201712,0,0,0.201712,886.356,351.247)">
            <circle cx="960" cy="440" r="4.958"/>
        </g>
        <g transform="matrix(0.201712,0,0,0.201712,1046.36,351.178)">
            <circle cx="960" cy="440" r="4.958"/>
        </g>
        <g transform="matrix(0.201712,0,0,0.201712,1126.36,351.178)">
            <circle cx="960" cy="440" r="4.958"/>
        </g>
        <g transform="matrix(0.201712,0,0,0.201712,1166.36,351.178)">
            <circle cx="960" cy="440" r="4.958"/>
        </g>
    </g>
    <g transform="matrix(1,0,0,1,0,120)">
        <g transform="matrix(0.201712,0,0,0.201712,766.356,351.247)">
            <circle cx="960" cy="440" r="4.958"/>
        </g>
        <g transform="matrix(0.201712,0,0,0.201712,926.356,351.178)">
            <circle cx="960" cy="440" r="4.958"/>
        </g>
        <g transform="matrix(0.201712,0,0,0.201712,846.356,351.247)">
            <circle cx="960" cy="440" r="4.958"/>
        </g>
        <g transform="matrix(0.201712,0,0,0.201712,1006.36,351.178)">
            <circle cx="960" cy="440" r="4.958"/>
        </g>
        <g transform="matrix(0.201712,0,0,0.201712,1086.36,351.178)">
            <circle cx="960" cy="440" r="4.958"/>
        </g>
        <g transform="matrix(0.201712,0,0,0.201712,806.356,351.247)">
            <circle cx="960" cy="440" r="4.958"/>
        </g>
        <g transform="matrix(0.201712,0,0,0.201712,966.356,351.178)">
            <circle cx="960" cy="440" r="4.958"/>
        </g>
        <g transform="matrix(0.201712,0,0,0.201712,886.356,351.247)">
            <circle cx="960" cy="440" r="4.958"/>
        </g>
        <g transform="matrix(0.201712,0,0,0.201712,1046.36,351.178)">
            <circle cx="960" cy="440" r="4.958"/>
        </g>
        <g transform="matrix(0.201712,0,0,0.201712,1126.36,351.178)">
            <circle cx="960" cy="440" r="4.958"/>
        </g>
        <g transform="matrix(0.201712,0,0,0.201712,1166.36,351.178)">
            <circle cx="960" cy="440" r="4.958"/>
        </g>
    </g>
    <g transform="matrix(1,0,0,1,0,520)">
        <g transform="matrix(0.201712,0,0,0.201712,766.356,351.247)">
            <circle cx="960" cy="440" r="4.958"/>
        </g>
        <g transform="matrix(0.201712,0,0,0.201712,926.356,351.178)">
            <circle cx="960" cy="440" r="4.958"/>
        </g>
        <g transform="matrix(0.201712,0,0,0.201712,846.356,351.247)">
            <circle cx="960" cy="440" r="4.958"/>
        </g>
        <g transform="matrix(0.201712,0,0,0.201712,1006.36,351.178)">
            <circle cx="960" cy="440" r="4.958"/>
        </g>
        <g transform="matrix(0.201712,0,0,0.201712,1086.36,351.178)">
            <circle cx="960" cy="440" r="4.958"/>
        </g>
        <g transform="matrix(0.201712,0,0,0.201712,806.356,351.247)">
            <circle cx="960" cy="440" r="4.958"/>
        </g>
        <g transform="matrix(0.201712,0,0,0.201712,966.356,351.178)">
            <circle cx="960" cy="440" r="4.958"/>
        </g>
        <g transform="matrix(0.201712,0,0,0.201712,886.356,351.247)">
            <circle cx="960" cy="440" r="4.958"/>
        </g>
        <g transform="matrix(0.201712,0,0,0.201712,1046.36,351.178)">
            <circle cx="960" cy="440" r="4.958"/>
        </g>
        <g transform="matrix(0.201712,0,0,0.201712,1126.36,351.178)">
            <circle cx="960" cy="440" r="4.958"/>
        </g>
        <g transform="matrix(0.201712,0,0,0.201712,1166.36,351.178)">
            <circle cx="960" cy="440" r="4.958"/>
        </g>
    </g>
    <g transform="matrix(1,0,0,1,0,360)">
        <g transform="matrix(0.201712,0,0,0.201712,766.356,351.247)">
            <circle cx="960" cy="440" r="4.958"/>
        </g>
        <g transform="matrix(0.201712,0,0,0.201712,926.356,351.178)">
            <circle cx="960" cy="440" r="4.958"/>
        </g>
        <g transform="matrix(0.201712,0,0,0.201712,846.356,351.247)">
            <circle cx="960" cy="440" r="4.958"/>
        </g>
        <g transform="matrix(0.201712,0,0,0.201712,1006.36,351.178)">
            <circle cx="960" cy="440" r="4.958"/>
        </g>
        <g transform="matrix(0.201712,0,0,0.201712,1086.36,351.178)">
            <circle cx="960" cy="440" r="4.958"/>
        </g>
        <g transform="matrix(0.201712,0,0,0.201712,806.356,351.247)">
            <circle cx="960" cy="440" r="4.958"/>
        </g>
        <g transform="matrix(0.201712,0,0,0.201712,966.356,351.178)">
            <circle cx="960" cy="440" r="4.958"/>
        </g>
        <g transform="matrix(0.201712,0,0,0.201712,886.356,351.247)">
            <circle cx="960" cy="440" r="4.958"/>
        </g>
        <g transform="matrix(0.201712,0,0,0.201712,1046.36,351.178)">
            <circle cx="960" cy="440" r="4.958"/>
        </g>
        <g transform="matrix(0.201712,0,0,0.201712,1126.36,351.178)">
            <circle cx="960" cy="440" r="4.958"/>
        </g>
        <g transform="matrix(0.201712,0,0,0.201712,1166.36,351.178)">
            <circle cx="960" cy="440" r="4.958"/>
        </g>
    </g>
    <g transform="matrix(1,0,0,1,0,760)">
        <g transform="matrix(0.201712,0,0,0.201712,766.356,351.247)">
            <circle cx="960" cy="440" r="4.958"/>
        </g>
        <g transform="matrix(0.201712,0,0,0.201712,926.356,351.178)">
            <circle cx="960" cy="440" r="4.958"/>
        </g>
        <g transform="matrix(0.201712,0,0,0.201712,846.356,351.247)">
            <circle cx="960" cy="440" r="4.958"/>
        </g>
        <g transform="matrix(0.201712,0,0,0.201712,1006.36,351.178)">
            <circle cx="960" cy="440" r="4.958"/>
        </g>
        <g transform="matrix(0.201712,0,0,0.201712,1086.36,351.178)">
            <circle cx="960" cy="440" r="4.958"/>
        </g>
        <g transform="matrix(0.201712,0,0,0.201712,806.356,351.247)">
            <circle cx="960" cy="440" r="4.958"/>
        </g>
        <g transform="matrix(0.201712,0,0,0.201712,966.356,351.178)">
            <circle cx="960" cy="440" r="4.958"/>
        </g>
        <g transform="matrix(0.201712,0,0,0.201712,886.356,351.247)">
            <circle cx="960" cy="440" r="4.958"/>
        </g>
        <g transform="matrix(0.201712,0,0,0.201712,1046.36,351.178)">
            <circle cx="960" cy="440" r="4.958"/>
        </g>
        <g transform="matrix(0.201712,0,0,0.201712,1126.36,351.178)">
            <circle cx="960" cy="440" r="4.958"/>
        </g>
        <g transform="matrix(0.201712,0,0,0.201712,1166.36,351.178)">
            <circle cx="960" cy="440" r="4.958"/>
        </g>
    </g>
    <g transform="matrix(1,0,0,1,0,1040)">
        <g transform="matrix(0.201712,0,0,0.201712,766.356,351.247)">
            <circle cx="960" cy="440" r="4.958"/>
        </g>
        <g transform="matrix(0.201712,0,0,0.201712,926.356,351.178)">
            <circle cx="960" cy="440" r="4.958"/>
        </g>
        <g transform="matrix(0.201712,0,0,0.201712,846.356,351.247)">
            <circle cx="960" cy="440" r="4.958"/>
        </g>
        <g transform="matrix(0.201712,0,0,0.201712,1006.36,351.178)">
            <circle cx="960" cy="440" r="4.958"/>
        </g>
        <g transform="matrix(0.201712,0,0,0.201712,1086.36,351.178)">
            <circle cx="960" cy="440" r="4.958"/>
        </g>
        <g transform="matrix(0.201712,0,0,0.201712,806.356,351.247)">
            <circle cx="960" cy="440" r="4.958"/>
        </g>
        <g transform="matrix(0.201712,0,0,0.201712,966.356,351.178)">
            <circle cx="960" cy="440" r="4.958"/>
        </g>
        <g transform="matrix(0.201712,0,0,0.201712,886.356,351.247)">
            <circle cx="960" cy="440" r="4.958"/>
        </g>
        <g transform="matrix(0.201712,0,0,0.201712,1046.36,351.178)">
            <circle cx="960" cy="440" r="4.958"/>
        </g>
        <g transform="matrix(0.201712,0,0,0.201712,1126.36,351.178)">
            <circle cx="960" cy="440" r="4.958"/>
        </g>
        <g transform="matrix(0.201712,0,0,0.201712,1166.36,351.178)">
            <circle cx="960" cy="440" r="4.958"/>
        </g>
    </g>
    <g transform="matrix(1,0,0,1,0,1200)">
        <g transform="matrix(0.201712,0,0,0.201712,766.356,351.247)">
            <circle cx="960" cy="440" r="4.958"/>
        </g>
        <g transform="matrix(0.201712,0,0,0.201712,926.356,351.178)">
            <circle cx="960" cy="440" r="4.958"/>
        </g>
        <g transform="matrix(0.201712,0,0,0.201712,846.356,351.247)">
            <circle cx="960" cy="440" r="4.958"/>
        </g>
        <g transform="matrix(0.201712,0,0,0.201712,1006.36,351.178)">
            <circle cx="960" cy="440" r="4.958"/>
        </g>
        <g transform="matrix(0.201712,0,0,0.201712,1086.36,351.178)">
            <circle cx="960" cy="440" r="4.958"/>
        </g>
        <g transform="matrix(0.201712,0,0,0.201712,806.356,351.247)">
            <circle cx="960" cy="440" r="4.958"/>
        </g>
        <g transform="matrix(0.201712,0,0,0.201712,966.356,351.178)">
            <circle cx="960" cy="440" r="4.958"/>
        </g>
        <g transform="matrix(0.201712,0,0,0.201712,886.356,351.247)">
            <circle cx="960" cy="440" r="4.958"/>
        </g>
        <g transform="matrix(0.201712,0,0,0.201712,1046.36,351.178)">
            <circle cx="960" cy="440" r="4.958"/>
        </g>
        <g transform="matrix(0.201712,0,0,0.201712,1126.36,351.178)">
            <circle cx="960" cy="440" r="4.958"/>
        </g>
        <g transform="matrix(0.201712,0,0,0.201712,1166.36,351.178)">
            <circle cx="960" cy="440" r="4.958"/>
        </g>
    </g>
    <g transform="matrix(1,0,0,1,0,1280)">
        <g transform="matrix(0.201712,0,0,0.201712,766.356,351.247)">
            <circle cx="960" cy="440" r="4.958"/>
        </g>
        <g transform="matrix(0.201712,0,0,0.201712,926.356,351.178)">
            <circle cx="960" cy="440" r="4.958"/>
        </g>
        <g transform="matrix(0.201712,0,0,0.201712,846.356,351.247)">
            <circle cx="960" cy="440" r="4.958"/>
        </g>
        <g transform="matrix(0.201712,0,0,0.201712,1006.36,351.178)">
            <circle cx="960" cy="440" r="4.958"/>
        </g>
        <g transform="matrix(0.201712,0,0,0.201712,1086.36,351.178)">
            <circle cx="960" cy="440" r="4.958"/>
        </g>
        <g transform="matrix(0.201712,0,0,0.201712,806.356,351.247)">
            <circle cx="960" cy="440" r="4.958"/>
        </g>
        <g transform="matrix(0.201712,0,0,0.201712,966.356,351.178)">
            <circle cx="960" cy="440" r="4.958"/>
        </g>
        <g transform="matrix(0.201712,0,0,0.201712,886.356,351.247)">
            <circle cx="960" cy="440" r="4.958"/>
        </g>
        <g transform="matrix(0.201712,0,0,0.201712,1046.36,351.178)">
            <circle cx="960" cy="440" r="4.958"/>
        </g>
        <g transform="matrix(0.201712,0,0,0.201712,1126.36,351.178)">
            <circle cx="960" cy="440" r="4.958"/>
        </g>
        <g transform="matrix(0.201712,0,0,0.201712,1166.36,351.178)">
            <circle cx="960" cy="440" r="4.958"/>
        </g>
    </g>
    <g transform="matrix(1,0,0,1,0,160)">
        <g transform="matrix(0.201712,0,0,0.201712,766.356,351.247)">
            <circle cx="960" cy="440" r="4.958"/>
        </g>
        <g transform="matrix(0.201712,0,0,0.201712,926.356,351.178)">
            <circle cx="960" cy="440" r="4.958"/>
        </g>
        <g transform="matrix(0.201712,0,0,0.201712,846.356,351.247)">
            <circle cx="960" cy="440" r="4.958"/>
        </g>
        <g transform="matrix(0.201712,0,0,0.201712,1006.36,351.178)">
            <circle cx="960" cy="440" r="4.958"/>
        </g>
        <g transform="matrix(0.201712,0,0,0.201712,1086.36,351.178)">
            <circle cx="960" cy="440" r="4.958"/>
        </g>
        <g transform="matrix(0.201712,0,0,0.201712,806.356,351.247)">
            <circle cx="960" cy="440" r="4.958"/>
        </g>
        <g transform="matrix(0.201712,0,0,0.201712,966.356,351.178)">
            <circle cx="960" cy="440" r="4.958"/>
        </g>
        <g transform="matrix(0.201712,0,0,0.201712,886.356,351.247)">
            <circle cx="960" cy="440" r="4.958"/>
        </g>
        <g transform="matrix(0.201712,0,0,0.201712,1046.36,351.178)">
            <circle cx="960" cy="440" r="4.958"/>
        </g>
        <g transform="matrix(0.201712,0,0,0.201712,1126.36,351.178)">
            <circle cx="960" cy="440" r="4.958"/>
        </g>
        <g transform="matrix(0.201712,0,0,0.201712,1166.36,351.178)">
            <circle cx="960" cy="440" r="4.958"/>
        </g>
    </g>
    <g transform="matrix(1,0,0,1,0,560)">
        <g transform="matrix(0.201712,0,0,0.201712,766.356,351.247)">
            <circle cx="960" cy="440" r="4.958"/>
        </g>
        <g transform="matrix(0.201712,0,0,0.201712,926.356,351.178)">
            <circle cx="960" cy="440" r="4.958"/>
        </g>
        <g transform="matrix(0.201712,0,0,0.201712,846.356,351.247)">
            <circle cx="960" cy="440" r="4.958"/>
        </g>
        <g transform="matrix(0.201712,0,0,0.201712,1006.36,351.178)">
            <circle cx="960" cy="440" r="4.958"/>
        </g>
        <g transform="matrix(0.201712,0,0,0.201712,1086.36,351.178)">
            <circle cx="960" cy="440" r="4.958"/>
        </g>
        <g transform="matrix(0.201712,0,0,0.201712,806.356,351.247)">
            <circle cx="960" cy="440" r="4.958"/>
        </g>
        <g transform="matrix(0.201712,0,0,0.201712,966.356,351.178)">
            <circle cx="960" cy="440" r="4.958"/>
        </g>
        <g transform="matrix(0.201712,0,0,0.201712,886.356,351.247)">
            <circle cx="960" cy="440" r="4.958"/>
        </g>
        <g transform="matrix(0.201712,0,0,0.201712,1046.36,351.178)">
            <circle cx="960" cy="440" r="4.958"/>
        </g>
        <g transform="matrix(0.201712,0,0,0.201712,1126.36,351.178)">
            <circle cx="960" cy="440" r="4.958"/>
        </g>
        <g transform="matrix(0.201712,0,0,0.201712,1166.36,351.178)">
            <circle cx="960" cy="440" r="4.958"/>
        </g>
    </g>
    <g transform="matrix(1,0,0,1,0,840)">
        <g transform="matrix(0.201712,0,0,0.201712,766.356,351.247)">
            <circle cx="960" cy="440" r="4.958"/>
        </g>
        <g transform="matrix(0.201712,0,0,0.201712,926.356,351.178)">
            <circle cx="960" cy="440" r="4.958"/>
        </g>
        <g transform="matrix(0.201712,0,0,0.201712,846.356,351.247)">
            <circle cx="960" cy="440" r="4.958"/>
        </g>
        <g transform="matrix(0.201712,0,0,0.201712,1006.36,351.178)">
            <circle cx="960" cy="440" r="4.958"/>
        </g>
        <g transform="matrix(0.201712,0,0,0.201712,1086.36,351.178)">
            <circle cx="960" cy="440" r="4.958"/>
        </g>
        <g transform="matrix(0.201712,0,0,0.201712,806.356,351.247)">
            <circle cx="960" cy="440" r="4.958"/>
        </g>
        <g transform="matrix(0.201712,0,0,0.201712,966.356,351.178)">
            <circle cx="960" cy="440" r="4.958"/>
        </g>
        <g transform="matrix(0.201712,0,0,0.201712,886.356,351.247)">
            <circle cx="960" cy="440" r="4.958"/>
        </g>
        <g transform="matrix(0.201712,0,0,0.201712,1046.36,351.178)">
            <circle cx="960" cy="440" r="4.958"/>
        </g>
        <g transform="matrix(0.201712,0,0,0.201712,1126.36,351.178)">
            <circle cx="960" cy="440" r="4.958"/>
        </g>
        <g transform="matrix(0.201712,0,0,0.201712,1166.36,351.178)">
            <circle cx="960" cy="440" r="4.958"/>
        </g>
    </g>
    <g transform="matrix(1,0,0,1,0,400)">
        <g transform="matrix(0.201712,0,0,0.201712,766.356,351.247)">
            <circle cx="960" cy="440" r="4.958"/>
        </g>
        <g transform="matrix(0.201712,0,0,0.201712,926.356,351.178)">
            <circle cx="960" cy="440" r="4.958"/>
        </g>
        <g transform="matrix(0.201712,0,0,0.201712,846.356,351.247)">
            <circle cx="960" cy="440" r="4.958"/>
        </g>
        <g transform="matrix(0.201712,0,0,0.201712,1006.36,351.178)">
            <circle cx="960" cy="440" r="4.958"/>
        </g>
        <g transform="matrix(0.201712,0,0,0.201712,1086.36,351.178)">
            <circle cx="960" cy="440" r="4.958"/>
        </g>
        <g transform="matrix(0.201712,0,0,0.201712,806.356,351.247)">
            <circle cx="960" cy="440" r="4.958"/>
        </g>
        <g transform="matrix(0.201712,0,0,0.201712,966.356,351.178)">
            <circle cx="960" cy="440" r="4.958"/>
        </g>
        <g transform="matrix(0.201712,0,0,0.201712,886.356,351.247)">
            <circle cx="960" cy="440" r="4.958"/>
        </g>
        <g transform="matrix(0.201712,0,0,0.201712,1046.36,351.178)">
            <circle cx="960" cy="440" r="4.958"/>
        </g>
        <g transform="matrix(0.201712,0,0,0.201712,1126.36,351.178)">
            <circle cx="960" cy="440" r="4.958"/>
        </g>
        <g transform="matrix(0.201712,0,0,0.201712,1166.36,351.178)">
            <circle cx="960" cy="440" r="4.958"/>
        </g>
    </g>
    <g transform="matrix(1,0,0,1,0,800)">
        <g transform="matrix(0.201712,0,0,0.201712,766.356,351.247)">
            <circle cx="960" cy="440" r="4.958"/>
        </g>
        <g transform="matrix(0.201712,0,0,0.201712,926.356,351.178)">
            <circle cx="960" cy="440" r="4.958"/>
        </g>
        <g transform="matrix(0.201712,0,0,0.201712,846.356,351.247)">
            <circle cx="960" cy="440" r="4.958"/>
        </g>
        <g transform="matrix(0.201712,0,0,0.201712,1006.36,351.178)">
            <circle cx="960" cy="440" r="4.958"/>
        </g>
        <g transform="matrix(0.201712,0,0,0.201712,1086.36,351.178)">
            <circle cx="960" cy="440" r="4.958"/>
        </g>
        <g transform="matrix(0.201712,0,0,0.201712,806.356,351.247)">
            <circle cx="960" cy="440" r="4.958"/>
        </g>
        <g transform="matrix(0.201712,0,0,0.201712,966.356,351.178)">
            <circle cx="960" cy="440" r="4.958"/>
        </g>
        <g transform="matrix(0.201712,0,0,0.201712,886.356,351.247)">
            <circle cx="960" cy="440" r="4.958"/>
        </g>
        <g transform="matrix(0.201712,0,0,0.201712,1046.36,351.178)">
            <circle cx="960" cy="440" r="4.958"/>
        </g>
        <g transform="matrix(0.201712,0,0,0.201712,1126.36,351.178)">
            <circle cx="960" cy="440" r="4.958"/>
        </g>
        <g transform="matrix(0.201712,0,0,0.201712,1166.36,351.178)">
            <circle cx="960" cy="440" r="4.958"/>
        </g>
    </g>
    <g transform="matrix(1,0,0,1,0,1080)">
        <g transform="matrix(0.201712,0,0,0.201712,766.356,351.247)">
            <circle cx="960" cy="440" r="4.958"/>
        </g>
        <g transform="matrix(0.201712,0,0,0.201712,926.356,351.178)">
            <circle cx="960" cy="440" r="4.958"/>
        </g>
        <g transform="matrix(0.201712,0,0,0.201712,846.356,351.247)">
            <circle cx="960" cy="440" r="4.958"/>
        </g>
        <g transform="matrix(0.201712,0,0,0.201712,1006.36,351.178)">
            <circle cx="960" cy="440" r="4.958"/>
        </g>
        <g transform="matrix(0.201712,0,0,0.201712,1086.36,351.178)">
            <circle cx="960" cy="440" r="4.958"/>
        </g>
        <g transform="matrix(0.201712,0,0,0.201712,806.356,351.247)">
            <circle cx="960" cy="440" r="4.958"/>
        </g>
        <g transform="matrix(0.201712,0,0,0.201712,966.356,351.178)">
            <circle cx="960" cy="440" r="4.958"/>
        </g>
        <g transform="matrix(0.201712,0,0,0.201712,886.356,351.247)">
            <circle cx="960" cy="440" r="4.958"/>
        </g>
        <g transform="matrix(0.201712,0,0,0.201712,1046.36,351.178)">
            <circle cx="960" cy="440" r="4.958"/>
        </g>
        <g transform="matrix(0.201712,0,0,0.201712,1126.36,351.178)">
            <circle cx="960" cy="440" r="4.958"/>
        </g>
        <g transform="matrix(0.201712,0,0,0.201712,1166.36,351.178)">
            <circle cx="960" cy="440" r="4.958"/>
        </g>
    </g>
    <g transform="matrix(1,0,0,1,0,1240)">
        <g transform="matrix(0.201712,0,0,0.201712,766.356,351.247)">
            <circle cx="960" cy="440" r="4.958"/>
        </g>
        <g transform="matrix(0.201712,0,0,0.201712,926.356,351.178)">
            <circle cx="960" cy="440" r="4.958"/>
        </g>
        <g transform="matrix(0.201712,0,0,0.201712,846.356,351.247)">
            <circle cx="960" cy="440" r="4.958"/>
        </g>
        <g transform="matrix(0.201712,0,0,0.201712,1006.36,351.178)">
            <circle cx="960" cy="440" r="4.958"/>
        </g>
        <g transform="matrix(0.201712,0,0,0.201712,1086.36,351.178)">
            <circle cx="960" cy="440" r="4.958"/>
        </g>
        <g transform="matrix(0.201712,0,0,0.201712,806.356,351.247)">
            <circle cx="960" cy="440" r="4.958"/>
        </g>
        <g transform="matrix(0.201712,0,0,0.201712,966.356,351.178)">
            <circle cx="960" cy="440" r="4.958"/>
        </g>
        <g transform="matrix(0.201712,0,0,0.201712,886.356,351.247)">
            <circle cx="960" cy="440" r="4.958"/>
        </g>
        <g transform="matrix(0.201712,0,0,0.201712,1046.36,351.178)">
            <circle cx="960" cy="440" r="4.958"/>
        </g>
        <g transform="matrix(0.201712,0,0,0.201712,1126.36,351.178)">
            <circle cx="960" cy="440" r="4.958"/>
        </g>
        <g transform="matrix(0.201712,0,0,0.201712,1166.36,351.178)">
            <circle cx="960" cy="440" r="4.958"/>
        </g>
    </g>
    <g transform="matrix(1,0,0,1,0,1320)">
        <g transform="matrix(0.201712,0,0,0.201712,766.356,351.247)">
            <circle cx="960" cy="440" r="4.958"/>
        </g>
        <g transform="matrix(0.201712,0,0,0.201712,926.356,351.178)">
            <circle cx="960" cy="440" r="4.958"/>
        </g>
        <g transform="matrix(0.201712,0,0,0.201712,846.356,351.247)">
            <circle cx="960" cy="440" r="4.958"/>
        </g>
        <g transform="matrix(0.201712,0,0,0.201712,1006.36,351.178)">
            <circle cx="960" cy="440" r="4.958"/>
        </g>
        <g transform="matrix(0.201712,0,0,0.201712,1086.36,351.178)">
            <circle cx="960" cy="440" r="4.958"/>
        </g>
        <g transform="matrix(0.201712,0,0,0.201712,806.356,351.247)">
            <circle cx="960" cy="440" r="4.958"/>
        </g>
        <g transform="matrix(0.201712,0,0,0.201712,966.356,351.178)">
            <circle cx="960" cy="440" r="4.958"/>
        </g>
        <g transform="matrix(0.201712,0,0,0.201712,886.356,351.247)">
            <circle cx="960" cy="440" r="4.958"/>
        </g>
        <g transform="matrix(0.201712,0,0,0.201712,1046.36,351.178)">
            <circle cx="960" cy="440" r="4.958"/>
        </g>
        <g transform="matrix(0.201712,0,0,0.201712,1126.36,351.178)">
            <circle cx="960" cy="440" r="4.958"/>
        </g>
        <g transform="matrix(0.201712,0,0,0.201712,1166.36,351.178)">
            <circle cx="960" cy="440" r="4.958"/>
        </g>
    </g>
    <g transform="matrix(1,0,0,1,0,200)">
        <g transform="matrix(0.201712,0,0,0.201712,766.356,351.247)">
            <circle cx="960" cy="440" r="4.958"/>
        </g>
        <g transform="matrix(0.201712,0,0,0.201712,926.356,351.178)">
            <circle cx="960" cy="440" r="4.958"/>
        </g>
        <g transform="matrix(0.201712,0,0,0.201712,846.356,351.247)">
            <circle cx="960" cy="440" r="4.958"/>
        </g>
        <g transform="matrix(0.201712,0,0,0.201712,1006.36,351.178)">
            <circle cx="960" cy="440" r="4.958"/>
        </g>
        <g transform="matrix(0.201712,0,0,0.201712,1086.36,351.178)">
            <circle cx="960" cy="440" r="4.958"/>
        </g>
        <g transform="matrix(0.201712,0,0,0.201712,806.356,351.247)">
            <circle cx="960" cy="440" r="4.958"/>
        </g>
        <g transform="matrix(0.201712,0,0,0.201712,966.356,351.178)">
            <circle cx="960" cy="440" r="4.958"/>
        </g>
        <g transform="matrix(0.201712,0,0,0.201712,886.356,351.247)">
            <circle cx="960" cy="440" r="4.958"/>
        </g>
        <g transform="matrix(0.201712,0,0,0.201712,1046.36,351.178)">
            <circle cx="960" cy="440" r="4.958"/>
        </g>
        <g transform="matrix(0.201712,0,0,0.201712,1126.36,351.178)">
            <circle cx="960" cy="440" r="4.958"/>
        </g>
        <g transform="matrix(0.201712,0,0,0.201712,1166.36,351.178)">
            <circle cx="960" cy="440" r="4.958"/>
        </g>
    </g>
    <g transform="matrix(1,0,0,1,0,600)">
        <g transform="matrix(0.201712,0,0,0.201712,766.356,351.247)">
            <circle cx="960" cy="440" r="4.958"/>
        </g>
        <g transform="matrix(0.201712,0,0,0.201712,926.356,351.178)">
            <circle cx="960" cy="440" r="4.958"/>
        </g>
        <g transform="matrix(0.201712,0,0,0.201712,846.356,351.247)">
            <circle cx="960" cy="440" r="4.958"/>
        </g>
        <g transform="matrix(0.201712,0,0,0.201712,1006.36,351.178)">
            <circle cx="960" cy="440" r="4.958"/>
        </g>
        <g transform="matrix(0.201712,0,0,0.201712,1086.36,351.178)">
            <circle cx="960" cy="440" r="4.958"/>
        </g>
        <g transform="matrix(0.201712,0,0,0.201712,806.356,351.247)">
            <circle cx="960" cy="440" r="4.958"/>
        </g>
        <g transform="matrix(0.201712,0,0,0.201712,966.356,351.178)">
            <circle cx="960" cy="440" r="4.958"/>
        </g>
        <g transform="matrix(0.201712,0,0,0.201712,886.356,351.247)">
            <circle cx="960" cy="440" r="4.958"/>
        </g>
        <g transform="matrix(0.201712,0,0,0.201712,1046.36,351.178)">
            <circle cx="960" cy="440" r="4.958"/>
        </g>
        <g transform="matrix(0.201712,0,0,0.201712,1126.36,351.178)">
            <circle cx="960" cy="440" r="4.958"/>
        </g>
        <g transform="matrix(0.201712,0,0,0.201712,1166.36,351.178)">
            <circle cx="960" cy="440" r="4.958"/>
        </g>
    </g>
    <g transform="matrix(1,0,0,1,0,880)">
        <g transform="matrix(0.201712,0,0,0.201712,766.356,351.247)">
            <circle cx="960" cy="440" r="4.958"/>
        </g>
        <g transform="matrix(0.201712,0,0,0.201712,926.356,351.178)">
            <circle cx="960" cy="440" r="4.958"/>
        </g>
        <g transform="matrix(0.201712,0,0,0.201712,846.356,351.247)">
            <circle cx="960" cy="440" r="4.958"/>
        </g>
        <g transform="matrix(0.201712,0,0,0.201712,1006.36,351.178)">
            <circle cx="960" cy="440" r="4.958"/>
        </g>
        <g transform="matrix(0.201712,0,0,0.201712,1086.36,351.178)">
            <circle cx="960" cy="440" r="4.958"/>
        </g>
        <g transform="matrix(0.201712,0,0,0.201712,806.356,351.247)">
            <circle cx="960" cy="440" r="4.958"/>
        </g>
        <g transform="matrix(0.201712,0,0,0.201712,966.356,351.178)">
            <circle cx="960" cy="440" r="4.958"/>
        </g>
        <g transform="matrix(0.201712,0,0,0.201712,886.356,351.247)">
            <circle cx="960" cy="440" r="4.958"/>
        </g>
        <g transform="matrix(0.201712,0,0,0.201712,1046.36,351.178)">
            <circle cx="960" cy="440" r="4.958"/>
        </g>
        <g transform="matrix(0.201712,0,0,0.201712,1126.36,351.178)">
            <circle cx="960" cy="440" r="4.958"/>
        </g>
        <g transform="matrix(0.201712,0,0,0.201712,1166.36,351.178)">
            <circle cx="960" cy="440" r="4.958"/>
        </g>
    </g>
    <g transform="matrix(1.02564,0,0,1.05128,-25.641,-45.6288)">
        <rect x="1000" y="1680" width="39" height="39" style="fill:none;stroke:black;stroke-width:0.96px;"/>
    </g>
    <g transform="matrix(1,0,0,1,-2.41322,52.0444)">
        <g transform="matrix(31.3889,0,0,31.3889,1058.56,1697.96)">
            <path d="M0.289,0.012C0.439,0.012 0.529,-0.07 0.529,-0.198C0.529,-0.302 0.47,-0.362 0.334,-0.393L0.277,-0.406C0.189,-0.426 0.146,-0.456 0.146,-0.522C0.146,-0.597 0.201,-0.636 0.29,-0.636C0.371,-0.636 0.424,-0.603 0.462,-0.55L0.525,-0.596C0.473,-0.67 0.399,-0.71 0.294,-0.71C0.157,-0.71 0.063,-0.643 0.063,-0.519C0.063,-0.412 0.133,-0.356 0.26,-0.327L0.317,-0.314C0.409,-0.293 0.446,-0.26 0.446,-0.194C0.446,-0.114 0.392,-0.062 0.292,-0.062C0.211,-0.062 0.153,-0.097 0.104,-0.162L0.042,-0.11C0.098,-0.034 0.177,0.012 0.289,0.012Z" style="fill-rule:nonzero;"/>
        </g>
        <g transform="matrix(31.3889,0,0,31.3889,1076.8,1697.96)">
            <path d="M0.085,-0L0.165,-0L0.165,-0.358C0.165,-0.424 0.227,-0.456 0.291,-0.456C0.368,-0.456 0.408,-0.409 0.408,-0.317L0.408,-0L0.488,-0L0.488,-0.331C0.488,-0.456 0.421,-0.528 0.315,-0.528C0.238,-0.528 0.194,-0.49 0.169,-0.432L0.165,-0.432L0.165,-0.74L0.085,-0.74L0.085,-0Z" style="fill-rule:nonzero;"/>
        </g>
        <g transform="matrix(31.3889,0,0,31.3889,1094.62,1697.96)">
            <path d="M0.403,-0L0.483,-0L0.483,-0.516L0.403,-0.516L0.403,-0.159C0.403,-0.091 0.341,-0.06 0.278,-0.06C0.201,-0.06 0.16,-0.107 0.16,-0.199L0.16,-0.516L0.08,-0.516L0.08,-0.185C0.08,-0.06 0.148,0.012 0.254,0.012C0.34,0.012 0.379,-0.035 0.399,-0.084L0.403,-0.084L0.403,-0Z" style="fill-rule:nonzero;"/>
        </g>
        <g transform="matrix(31.3889,0,0,31.3889,1112.45,1697.96)">
            <path d="M0.299,-0L0.299,-0.07L0.194,-0.07L0.194,-0.446L0.307,-0.446L0.307,-0.516L0.194,-0.516L0.194,-0.659L0.122,-0.659L0.122,-0.563C0.122,-0.528 0.111,-0.516 0.077,-0.516L0.029,-0.516L0.029,-0.446L0.114,-0.446L0.114,-0.085C0.114,-0.035 0.144,-0 0.199,-0L0.299,-0Z" style="fill-rule:nonzero;"/>
        </g>
        <g transform="matrix(31.3889,0,0,31.3889,1123.35,1697.96)">
            <path d="M0.415,-0L0.495,-0L0.495,-0.74L0.415,-0.74L0.415,-0.432L0.411,-0.432C0.384,-0.497 0.331,-0.528 0.26,-0.528C0.131,-0.528 0.05,-0.423 0.05,-0.258C0.05,-0.093 0.131,0.012 0.26,0.012C0.331,0.012 0.38,-0.02 0.411,-0.084L0.415,-0.084L0.415,-0ZM0.282,-0.06C0.192,-0.06 0.136,-0.122 0.136,-0.214L0.136,-0.302C0.136,-0.394 0.192,-0.456 0.282,-0.456C0.355,-0.456 0.415,-0.414 0.415,-0.357L0.415,-0.165C0.415,-0.098 0.355,-0.06 0.282,-0.06Z" style="fill-rule:nonzero;"/>
        </g>
        <g transform="matrix(31.3889,0,0,31.3889,1141.55,1697.96)">
            <path d="M0.28,0.012C0.418,0.012 0.513,-0.094 0.513,-0.258C0.513,-0.422 0.418,-0.528 0.28,-0.528C0.142,-0.528 0.047,-0.422 0.047,-0.258C0.047,-0.094 0.142,0.012 0.28,0.012ZM0.28,-0.059C0.194,-0.059 0.133,-0.112 0.133,-0.221L0.133,-0.295C0.133,-0.404 0.194,-0.457 0.28,-0.457C0.366,-0.457 0.427,-0.404 0.427,-0.295L0.427,-0.221C0.427,-0.112 0.366,-0.059 0.28,-0.059Z" style="fill-rule:nonzero;"/>
        </g>
        <g transform="matrix(31.3889,0,0,31.3889,1158.97,1697.96)">
            <path d="M0.169,-0L0.266,-0L0.338,-0.248L0.382,-0.405L0.384,-0.405L0.429,-0.248L0.501,-0L0.6,-0L0.737,-0.516L0.662,-0.516L0.606,-0.293L0.553,-0.067L0.551,-0.067L0.487,-0.293L0.42,-0.516L0.349,-0.516L0.284,-0.293L0.221,-0.067L0.219,-0.067L0.164,-0.293L0.109,-0.516L0.031,-0.516L0.169,-0Z" style="fill-rule:nonzero;"/>
        </g>
        <g transform="matrix(31.3889,0,0,31.3889,1183.08,1697.96)">
            <path d="M0.165,-0L0.165,-0.358C0.165,-0.424 0.227,-0.456 0.291,-0.456C0.368,-0.456 0.408,-0.409 0.408,-0.317L0.408,-0L0.488,-0L0.488,-0.331C0.488,-0.456 0.421,-0.528 0.315,-0.528C0.238,-0.528 0.194,-0.49 0.169,-0.432L0.165,-0.432L0.165,-0.516L0.085,-0.516L0.085,-0L0.165,-0Z" style="fill-rule:nonzero;"/>
        </g>
        <g transform="matrix(31.3889,0,0,31.3889,1208.32,1697.96)">
            <path d="M0.339,0.012C0.455,0.012 0.54,-0.049 0.584,-0.147L0.517,-0.189C0.489,-0.113 0.428,-0.063 0.339,-0.063C0.219,-0.063 0.148,-0.15 0.148,-0.293L0.148,-0.397C0.148,-0.54 0.219,-0.635 0.339,-0.635C0.425,-0.635 0.483,-0.588 0.511,-0.516L0.579,-0.557C0.535,-0.654 0.455,-0.71 0.339,-0.71C0.163,-0.71 0.058,-0.578 0.058,-0.345C0.058,-0.112 0.163,0.012 0.339,0.012Z" style="fill-rule:nonzero;"/>
        </g>
        <g transform="matrix(31.3889,0,0,31.3889,1227.81,1697.96)">
            <path d="M0.28,0.012C0.418,0.012 0.513,-0.094 0.513,-0.258C0.513,-0.422 0.418,-0.528 0.28,-0.528C0.142,-0.528 0.047,-0.422 0.047,-0.258C0.047,-0.094 0.142,0.012 0.28,0.012ZM0.28,-0.059C0.194,-0.059 0.133,-0.112 0.133,-0.221L0.133,-0.295C0.133,-0.404 0.194,-0.457 0.28,-0.457C0.366,-0.457 0.427,-0.404 0.427,-0.295L0.427,-0.221C0.427,-0.112 0.366,-0.059 0.28,-0.059Z" style="fill-rule:nonzero;"/>
        </g>
        <g transform="matrix(31.3889,0,0,31.3889,1245.39,1697.96)">
            <path d="M0.165,-0L0.165,-0.358C0.165,-0.424 0.225,-0.456 0.288,-0.456C0.364,-0.456 0.399,-0.409 0.399,-0.317L0.399,-0L0.479,-0L0.479,-0.358C0.479,-0.424 0.537,-0.456 0.6,-0.456C0.678,-0.456 0.713,-0.408 0.713,-0.317L0.713,-0L0.793,-0L0.793,-0.331C0.793,-0.456 0.73,-0.528 0.625,-0.528C0.537,-0.528 0.487,-0.479 0.468,-0.423L0.466,-0.423C0.438,-0.497 0.376,-0.528 0.308,-0.528C0.228,-0.528 0.192,-0.485 0.169,-0.432L0.165,-0.432L0.165,-0.516L0.085,-0.516L0.085,-0L0.165,-0Z" style="fill-rule:nonzero;"/>
        </g>
        <g transform="matrix(31.3889,0,0,31.3889,1272.79,1697.96)">
            <path d="M0.085,0.2L0.165,0.2L0.165,-0.084L0.169,-0.084C0.2,-0.02 0.249,0.012 0.32,0.012C0.449,0.012 0.53,-0.093 0.53,-0.258C0.53,-0.423 0.449,-0.528 0.32,-0.528C0.249,-0.528 0.196,-0.497 0.169,-0.432L0.165,-0.432L0.165,-0.516L0.085,-0.516L0.085,0.2ZM0.298,-0.06C0.225,-0.06 0.165,-0.098 0.165,-0.165L0.165,-0.357C0.165,-0.414 0.225,-0.456 0.298,-0.456C0.388,-0.456 0.444,-0.394 0.444,-0.302L0.444,-0.214C0.444,-0.122 0.388,-0.06 0.298,-0.06Z" style="fill-rule:nonzero;"/>
        </g>
        <g transform="matrix(31.3889,0,0,31.3889,1290.99,1697.96)">
            <path d="M0.241,-0L0.241,-0.07L0.165,-0.07L0.165,-0.74L0.085,-0.74L0.085,-0.083C0.085,-0.035 0.115,-0 0.17,-0L0.241,-0Z" style="fill-rule:nonzero;"/>
        </g>
        <g transform="matrix(31.3889,0,0,31.3889,1299.53,1697.96)">
            <path d="M0.279,0.012C0.376,0.012 0.45,-0.036 0.483,-0.106L0.426,-0.147C0.399,-0.09 0.349,-0.058 0.284,-0.058C0.188,-0.058 0.131,-0.125 0.131,-0.214L0.131,-0.238L0.502,-0.238L0.502,-0.276C0.502,-0.422 0.417,-0.528 0.279,-0.528C0.139,-0.528 0.047,-0.422 0.047,-0.258C0.047,-0.094 0.139,0.012 0.279,0.012ZM0.279,-0.461C0.361,-0.461 0.416,-0.4 0.416,-0.309L0.416,-0.298L0.131,-0.298L0.131,-0.305C0.131,-0.395 0.192,-0.461 0.279,-0.461Z" style="fill-rule:nonzero;"/>
        </g>
        <g transform="matrix(31.3889,0,0,31.3889,1316.76,1697.96)">
            <path d="M0.299,-0L0.299,-0.07L0.194,-0.07L0.194,-0.446L0.307,-0.446L0.307,-0.516L0.194,-0.516L0.194,-0.659L0.122,-0.659L0.122,-0.563C0.122,-0.528 0.111,-0.516 0.077,-0.516L0.029,-0.516L0.029,-0.446L0.114,-0.446L0.114,-0.085C0.114,-0.035 0.144,-0 0.199,-0L0.299,-0Z" style="fill-rule:nonzero;"/>
        </g>
        <g transform="matrix(31.3889,0,0,31.3889,1327.66,1697.96)">
            <path d="M0.279,0.012C0.376,0.012 0.45,-0.036 0.483,-0.106L0.426,-0.147C0.399,-0.09 0.349,-0.058 0.284,-0.058C0.188,-0.058 0.131,-0.125 0.131,-0.214L0.131,-0.238L0.502,-0.238L0.502,-0.276C0.502,-0.422 0.417,-0.528 0.279,-0.528C0.139,-0.528 0.047,-0.422 0.047,-0.258C0.047,-0.094 0.139,0.012 0.279,0.012ZM0.279,-0.461C0.361,-0.461 0.416,-0.4 0.416,-0.309L0.416,-0.298L0.131,-0.298L0.131,-0.305C0.131,-0.395 0.192,-0.461 0.279,-0.461Z" style="fill-rule:nonzero;"/>
        </g>
    </g>
</svg>
